<svg width="36" height="27" viewBox="0 0 36 27" fill="none" xmlns="http://www.w3.org/2000/svg">
<path d="M17.7955 17.6309C17.7955 16.8803 17.7433 16.193 17.639 15.5654C17.5348 14.9379 17.3645 14.335 17.1264 13.7549C16.8883 13.1748 16.539 12.7178 16.075 12.3838C15.611 12.0498 15.0497 11.8828 14.3893 11.8828C14.3198 11.9303 14.146 12.0357 13.8679 12.1992C13.5899 12.3627 13.3727 12.4893 13.2163 12.5771C13.0598 12.665 12.8548 12.767 12.5993 12.8848C12.3439 13.0025 12.0953 13.0869 11.8521 13.1396C11.6088 13.1924 11.3655 13.2188 11.1222 13.2188C10.8789 13.2188 10.6356 13.1924 10.3923 13.1396C10.149 13.0869 9.90046 13.0025 9.645 12.8848C9.38953 12.767 9.18447 12.665 9.02806 12.5771C8.87166 12.4893 8.65443 12.3627 8.37638 12.1992C8.09832 12.0357 7.92454 11.9303 7.85502 11.8828C7.19465 11.8828 6.63333 12.0498 6.16932 12.3838C5.70532 12.7178 5.35601 13.1748 5.11793 13.7549C4.87985 14.335 4.70954 14.9379 4.60527 15.5654C4.501 16.193 4.44886 16.8803 4.44886 17.6309C4.44886 18.3814 4.66262 19.0055 5.09186 19.5029C5.52111 20.0004 6.04767 20.25 6.6733 20.25H15.571C16.1966 20.25 16.7232 20.0004 17.1525 19.5029C17.5817 19.0055 17.7955 18.3814 17.7955 17.6309ZM15.067 8.49023C15.067 7.38809 14.6812 6.44766 13.9114 5.66895C13.1415 4.89023 12.2118 4.5 11.1222 4.5C10.0325 4.5 9.10279 4.89023 8.33293 5.66895C7.56307 6.44766 7.17727 7.38809 7.17727 8.49023C7.17727 9.59238 7.56307 10.5328 8.33293 11.3115C9.10279 12.0902 10.0325 12.4805 11.1222 12.4805C12.2118 12.4805 13.1415 12.0902 13.9114 11.3115C14.6812 10.5328 15.067 9.59238 15.067 8.49023ZM31.142 17.4375V16.3125C31.142 16.149 31.0899 16.0137 30.9856 15.9082C30.8814 15.8027 30.7476 15.75 30.5859 15.75H20.576C20.4144 15.75 20.2806 15.8027 20.1763 15.9082C20.072 16.0137 20.0199 16.149 20.0199 16.3125V17.4375C20.0199 17.601 20.072 17.7363 20.1763 17.8418C20.2806 17.9473 20.4144 18 20.576 18H30.5859C30.7476 18 30.8814 17.9473 30.9856 17.8418C31.0899 17.7363 31.142 17.601 31.142 17.4375ZM31.142 12.8672V11.8828C31.142 11.707 31.0812 11.5576 30.9596 11.4346C30.8379 11.3115 30.6902 11.25 30.5164 11.25H20.6455C20.4717 11.25 20.324 11.3115 20.2024 11.4346C20.0807 11.5576 20.0199 11.707 20.0199 11.8828V12.8672C20.0199 13.043 20.0807 13.1924 20.2024 13.3154C20.324 13.4385 20.4717 13.5 20.6455 13.5H30.5164C30.6902 13.5 30.8379 13.4385 30.9596 13.3154C31.0812 13.1924 31.142 13.043 31.142 12.8672ZM31.142 8.4375V7.3125C31.142 7.14902 31.0899 7.01367 30.9856 6.9082C30.8814 6.80273 30.7476 6.75 30.5859 6.75H20.576C20.4144 6.75 20.2806 6.80273 20.1763 6.9082C20.072 7.01367 20.0199 7.14902 20.0199 7.3125V8.4375C20.0199 8.60098 20.072 8.73633 20.1763 8.8418C20.2806 8.94727 20.4144 9 20.576 9H30.5859C30.7476 9 30.8814 8.94727 30.9856 8.8418C31.0899 8.73633 31.142 8.60098 31.142 8.4375ZM24.4687 27H11.1222H8.89773H2.78054C2.01589 27 1.36073 26.724 0.816784 26.1738C0.27284 25.6236 0 24.9609 0 24.1875V2.8125C0 2.03906 0.27284 1.37637 0.816784 0.826172C1.36073 0.275977 2.01589 0 2.78054 0H32.8104C33.575 0 34.2302 0.275977 34.7741 0.826172C35.3181 1.37637 35.5909 2.03906 35.5909 2.8125V24.1875C35.5909 24.9609 35.3181 25.6236 34.7741 26.1738C34.2302 26.724 33.575 27 32.8104 27H26.6932H24.4687Z" fill="black"/>
</svg>
