<svg width="55" height="35" viewBox="0 0 55 35" fill="none" xmlns="http://www.w3.org/2000/svg">
<path d="M27.5124 18.6425L10.3542 1.32358C9.4883 0.449518 8.41206 0 7.16262 0C5.88844 0 4.82456 0.437032 3.95861 1.32358L1.31129 3.99572C0.445344 4.86978 0 5.95612 0 7.21727C0 8.47842 0.432974 9.56475 1.31129 10.4388L24.3084 33.6764C25.1743 34.5505 26.2506 35 27.5 35C28.7494 35 29.8257 34.563 30.6916 33.6764L53.6887 10.4388C54.5547 9.56475 55 8.47842 55 7.21727C55 5.95612 54.567 4.86978 53.6887 3.99572L51.0414 1.32358C50.1754 0.449518 49.1116 0 47.8621 0C46.6127 0 45.5488 0.437032 44.6457 1.32358L27.5124 18.6425Z" fill="white" fill-opacity="0.7"/>
</svg>
