<svg width="32" height="27" viewBox="0 0 32 27" fill="none" xmlns="http://www.w3.org/2000/svg">
<path d="M15.9899 0C15.7998 2.41062e-05 15.6116 0.0373233 15.4362 0.109738C15.2608 0.182153 15.1016 0.288246 14.9679 0.421875L0.46972 12.9282C0.379173 12.9943 0.305579 13.0804 0.254864 13.1798C0.204149 13.2791 0.17773 13.3888 0.177734 13.5C0.177734 13.6884 0.253458 13.8692 0.388247 14.0024C0.523036 14.1357 0.705849 14.2105 0.896469 14.2105H4.49014V25.579C4.49014 26.3634 5.13413 27 5.92761 27H11.6775C12.471 27 13.115 26.3634 13.115 25.579V17.0526H18.8648V25.579C18.8648 26.3634 19.5088 27 20.3023 27H26.0522C26.8457 27 27.4897 26.3634 27.4897 25.579V14.2105H31.0833C31.2739 14.2105 31.4568 14.1357 31.5915 14.0024C31.7263 13.8692 31.8021 13.6884 31.8021 13.5C31.8021 13.3888 31.7756 13.2791 31.7249 13.1798C31.6742 13.0804 31.6006 12.9943 31.5101 12.9282L17.0203 0.430202C17.0175 0.427415 17.0147 0.424639 17.0118 0.421875C16.8782 0.288246 16.719 0.182153 16.5436 0.109738C16.3682 0.0373233 16.18 2.41062e-05 15.9899 0Z" fill="black"/>
</svg>
