<svg width="209" height="150" viewBox="0 0 209 150" fill="none" xmlns="http://www.w3.org/2000/svg">
<g clip-path="url(#clip0)">
<path d="M0 149.899H33.6182" stroke="#3F3D56" stroke-miterlimit="10"/>
<path d="M189.984 19.4646H48.5839C46.4143 19.4646 44.6555 21.2208 44.6555 23.3873V116.452C44.6555 118.618 46.4143 120.374 48.5839 120.374H189.984C192.153 120.374 193.912 118.618 193.912 116.452V23.3873C193.912 21.2208 192.153 19.4646 189.984 19.4646Z" stroke="#3F3D56" stroke-miterlimit="10"/>
<path d="M44.6555 29.139H193.912" stroke="#3F3D56" stroke-miterlimit="10"/>
<path opacity="0.3" d="M173.135 51.8204H135.302C134.508 51.8204 133.865 52.4626 133.865 53.2547V56.6551C133.865 57.4472 134.508 58.0894 135.302 58.0894H173.135C173.929 58.0894 174.572 57.4472 174.572 56.6551V53.2547C174.572 52.4626 173.929 51.8204 173.135 51.8204Z" fill="#066660"/>
<path opacity="0.3" d="M180.932 69.2117H127.505C126.711 69.2117 126.068 69.8538 126.068 70.6459V72.833C126.068 73.6251 126.711 74.2673 127.505 74.2673H180.932C181.726 74.2673 182.369 73.6251 182.369 72.833V70.6459C182.369 69.8538 181.726 69.2117 180.932 69.2117Z" fill="#066660"/>
<path opacity="0.3" d="M180.932 82.9629H127.505C126.711 82.9629 126.068 83.605 126.068 84.3972V86.5842C126.068 87.3763 126.711 88.0185 127.505 88.0185H180.932C181.726 88.0185 182.369 87.3763 182.369 86.5842V84.3972C182.369 83.605 181.726 82.9629 180.932 82.9629Z" fill="#066660"/>
<path opacity="0.3" d="M180.932 96.714H127.505C126.711 96.714 126.068 97.3561 126.068 98.1483V100.335C126.068 101.127 126.711 101.77 127.505 101.77H180.932C181.726 101.77 182.369 101.127 182.369 100.335V98.1483C182.369 97.3561 181.726 96.714 180.932 96.714Z" fill="#066660"/>
<path opacity="0.3" d="M55.9967 27.3301C57.6744 27.3301 59.0344 25.9721 59.0344 24.2968C59.0344 22.6215 57.6744 21.2634 55.9967 21.2634C54.3189 21.2634 52.9589 22.6215 52.9589 24.2968C52.9589 25.9721 54.3189 27.3301 55.9967 27.3301Z" fill="#066660"/>
<path opacity="0.3" d="M64.5024 27.3301C66.1801 27.3301 67.5402 25.9721 67.5402 24.2968C67.5402 22.6215 66.1801 21.2634 64.5024 21.2634C62.8247 21.2634 61.4646 22.6215 61.4646 24.2968C61.4646 25.9721 62.8247 27.3301 64.5024 27.3301Z" fill="#066660"/>
<path opacity="0.3" d="M73.0082 27.3301C74.686 27.3301 76.046 25.9721 76.046 24.2968C76.046 22.6215 74.686 21.2634 73.0082 21.2634C71.3305 21.2634 69.9705 22.6215 69.9705 24.2968C69.9705 25.9721 71.3305 27.3301 73.0082 27.3301Z" fill="#066660"/>
<path d="M91.8129 116.128C91.3043 113.788 91.1695 110.593 91.3405 108.37C91.3405 108.37 88.7689 97.0888 86.7454 96.0363L86.7448 96.0369C86.7138 96.0767 85.7318 97.3622 85.6072 101.34C85.4807 105.381 84.0479 108.033 84.0479 108.033C84.0479 108.033 84.5115 113.07 84.2464 116.128L91.8129 116.128Z" fill="#066660"/>
<path d="M110.521 44.3381H63.8487C63.2164 44.3381 62.5904 44.4625 62.0063 44.7041C61.4222 44.9456 60.8915 45.2997 60.4445 45.7461C59.9974 46.1925 59.6428 46.7225 59.4009 47.3057C59.1589 47.8889 59.0344 48.514 59.0344 49.1453V111.32C59.0344 111.952 59.1589 112.577 59.4009 113.16C59.6428 113.743 59.9974 114.273 60.4445 114.72C60.8915 115.166 61.4222 115.52 62.0063 115.762C62.5904 116.003 63.2164 116.128 63.8487 116.128H80.2234C79.6765 113.863 78.9967 110.326 79.6852 107.866L79.6849 107.865L79.6853 107.866C79.7175 107.751 79.7516 107.638 79.7899 107.528C80.2628 105.932 80.4204 104.259 80.254 102.603C80.558 101.188 80.558 99.7244 80.254 98.3093C79.7481 95.9523 79.394 93.6369 79.394 93.6369C79.394 93.6369 79.1151 90.5222 79.3586 88.6128C79.364 88.5709 79.3703 88.5311 79.3762 88.4904C79.2902 88.4708 79.242 88.4596 79.242 88.4596C79.242 88.4596 79.9587 85.2184 80.2116 83.1558C80.2713 82.6688 80.3499 82.0516 80.435 81.3934C80.2015 81.3547 79.9717 81.2965 79.7479 81.2194C77.4715 80.4197 76.7549 73.1795 76.7549 73.1795V70.8854C76.7549 70.8854 75.9961 67.3706 78.6519 65.8131C81.2093 64.3134 82.2303 63.9029 82.3025 63.8745C82.322 63.8606 82.341 63.848 82.3609 63.8326C82.6499 63.6061 82.8787 63.3121 83.0271 62.9765C83.0307 62.9187 83.0315 62.8612 83.0296 62.8041C82.9864 61.9818 82.4131 61.2339 81.8691 60.5812C81.4051 60.0247 80.9411 59.468 80.4771 58.9114C80.3181 58.7456 80.196 58.5482 80.1186 58.3321C80.0892 58.2128 80.0765 58.0901 80.0807 57.9673C80.0803 57.9219 80.0806 57.8765 80.0815 57.8312C80.0891 57.4162 80.1004 57.0013 80.1154 56.5864C80.1284 56.224 80.2198 55.7667 80.5753 55.6922C80.7601 55.6535 81.0048 55.721 81.1026 55.5596C81.1353 55.4931 81.1437 55.4172 81.1262 55.3451C81.125 55.3505 81.1247 55.3562 81.1232 55.3614C81.122 55.3547 81.1208 55.3479 81.1196 55.3412C81.0464 55.0506 81.0023 54.7535 80.9878 54.4542C80.9839 54.3191 81.0032 54.1844 81.0449 54.0559C81.2508 53.4542 81.9599 53.2073 82.5864 53.0938C83.2129 52.9803 83.9162 52.8827 84.3095 52.3826C84.4147 52.2165 84.5289 52.0563 84.6515 51.9025C84.8319 51.7388 85.0535 51.6272 85.2926 51.5796C86.0704 51.3831 86.8919 51.4559 87.6229 51.7862C87.9259 51.9242 88.2304 52.1102 88.5628 52.0892C88.9081 52.0673 89.2031 51.8246 89.544 51.7656C90.0947 51.6702 90.6212 52.0822 90.8926 52.5701C91.0649 52.8804 91.1511 53.2311 91.1422 53.5859C91.1487 53.9391 91.0211 54.2816 90.785 54.5446C90.548 54.7957 90.1944 54.9681 90.096 55.2989C90.0559 55.4335 90.0652 55.5784 90.0297 55.7143C90.0253 55.7313 90.0181 55.7472 90.0123 55.7636C90.0188 55.772 90.0259 55.78 90.0323 55.7885C90.4469 56.334 90.7247 56.9705 90.8427 57.645C90.9607 58.3196 90.9154 59.0125 90.7106 59.666C90.5059 60.3194 90.1475 60.9145 89.6655 61.4016C89.1835 61.8886 88.5919 62.2535 87.9399 62.4658C87.9383 62.5083 87.9366 62.551 87.9368 62.5938C87.9246 62.8591 87.9697 63.124 88.0689 63.3705C88.1681 63.617 88.3192 63.8393 88.5119 64.0224L92.2681 65.5605C92.2681 65.5605 94.5293 65.2869 95.3453 68.6565C95.4762 69.2166 95.5232 69.7929 95.4851 70.3668C95.4554 70.8749 95.5245 71.7694 96.1042 72.927C97.0316 74.7791 96.8208 79.0305 94.9238 79.4515C93.127 79.8502 92.4281 79.6827 92.3592 79.6639L92.3551 79.7383C92.3847 80.536 92.669 87.4165 93.7014 88.2491C93.9868 88.4793 93.9323 88.6348 93.6981 88.7396L93.6986 88.7403C93.6986 88.7403 93.7005 88.7845 93.7049 88.8641C93.7359 89.3673 93.8953 91.2836 94.5864 92.3741C95.3876 93.6369 95.3035 100.92 95.3035 100.92L95.851 105.213C95.851 105.213 95.514 107.865 95.851 108.328C96.0425 108.59 96.2744 112.656 96.4394 116.128H110.521C111.797 116.128 113.022 115.621 113.925 114.72C114.828 113.818 115.335 112.595 115.335 111.32V49.1453C115.335 48.514 115.21 47.8889 114.968 47.3057C114.726 46.7225 114.372 46.1925 113.925 45.7461C113.478 45.2997 112.947 44.9456 112.363 44.7041C111.779 44.4625 111.153 44.3381 110.521 44.3381Z" fill="#066660"/>
<path d="M20.4189 65.0413C20.4189 65.0413 18.5306 64.4838 18.1256 65.0905C17.7205 65.6972 18.6778 70.0951 18.6778 70.0951L22.8387 70.3475L21.3866 66.686L20.4189 65.0413Z" fill="#2F2E41"/>
<path d="M5.86172 101.156C5.86172 101.156 9.64775 109.456 6.73207 109.195C3.81639 108.935 2.68494 101.156 2.68494 101.156H5.86172Z" fill="#EBBBA0"/>
<path d="M30.6232 100.292C30.6232 100.292 28.9623 109.26 31.728 108.302C34.4937 107.344 33.7055 99.5237 33.7055 99.5237L30.6232 100.292Z" fill="#EBBBA0"/>
<path d="M19.6133 62.9603C19.6133 62.9603 19.5698 67.1319 21.1799 67.3492C22.7901 67.5665 20.2661 69.7826 20.2661 69.7826L17.3939 70.3475L13.2597 70.0434L11.432 67.6968C11.432 67.6968 14.6523 66.1759 13.2597 61.4395L19.6133 62.9603Z" fill="#EDAE8B"/>
<path d="M27.0113 98.245C27.0113 98.245 29.0566 102.634 27.4464 116.409C27.4464 116.409 27.9251 121.276 27.5335 122.188C27.1418 123.101 23.9215 135.485 23.9215 135.485C23.9215 135.485 19.7873 136.398 19.2216 133.66C19.2216 133.66 19.7873 129.749 19.7438 129.141C19.7003 128.533 20.6577 121.884 20.6577 121.884L18.6994 109.022L17.2198 120.624C17.2198 120.624 17.2198 123.97 16.7411 124.709C16.2624 125.447 16.7411 140.309 16.7411 140.309C16.7411 140.309 18.0901 142.568 16.0448 142.612C13.9995 142.655 12.1718 142.568 11.9977 141.134C11.8236 139.7 11.7366 138.266 11.3014 137.397C10.8662 136.528 10.3005 126.577 10.431 123.101C10.5616 119.624 7.55888 101.765 8.51627 99.8963C9.47365 98.0278 27.0113 98.245 27.0113 98.245Z" fill="#2F2E41"/>
<path d="M17.3939 64.5247C20.278 64.5247 22.616 62.1901 22.616 59.3102C22.616 56.4303 20.278 54.0957 17.3939 54.0957C14.5098 54.0957 12.1718 56.4303 12.1718 59.3102C12.1718 62.1901 14.5098 64.5247 17.3939 64.5247Z" fill="#EBBBA0"/>
<path d="M12.1718 67.7837C12.1718 67.7837 15.3486 70.1302 19.9615 68.2617C19.9615 68.2617 21.4846 67.523 21.3541 66.3932C21.2235 65.2634 24.5309 75.4751 24.5309 75.4751L27.8817 93.2478L27.7076 100.505C27.7076 100.505 26.228 99.7659 21.6152 101.417C17.0023 103.068 9.47375 99.5487 9.47375 99.5487L9.73486 80.9069L9.99596 70.0433L10.6922 67.6534C10.6922 67.6534 11.0404 67.0016 12.1718 67.7837Z" fill="#F2F2F2"/>
<path d="M19.7584 64.8666C19.7584 64.8666 20.5272 64.7419 21.267 65.9152C22.0068 67.0885 23.7475 67.8272 23.7475 67.8272C23.7475 67.8272 27.9687 68.0879 28.5779 70.3475C29.1872 72.6071 30.7103 75.6924 31.4501 81.3848C32.1899 87.0773 33.6695 96.1592 33.8871 96.898C34.1047 97.6367 33.5825 99.8963 34.1917 100.592C34.8009 101.287 29.8835 101.287 29.8835 101.287C29.8835 101.287 29.4483 97.7236 29.1437 97.7236C28.839 97.7236 28.9261 100.114 29.2307 101.852C29.5353 103.59 27.0113 101.852 27.0113 101.852C27.0113 101.852 25.053 93.8996 23.1817 86.7297C21.3105 79.5598 20.2226 75.6055 20.5707 73.9976C20.9188 72.3898 21.8762 67.7837 21.1799 67.3492C20.4836 66.9146 19.7584 64.8666 19.7584 64.8666Z" fill="#2F2E41"/>
<path d="M13.4821 64.8628C13.4821 64.8628 12.3452 65.4807 9.47302 67.523C6.60085 69.5653 4.64257 71.1297 4.64257 71.1297C4.64257 71.1297 3.51111 71.9988 2.81483 77.1698C2.11855 82.3408 0.551911 95.7247 1.16116 97.4194C1.77041 99.1141 1.988 100.114 1.77041 101.113C1.55282 102.112 6.33976 102.069 6.42679 101.852C6.51383 101.634 6.29624 97.6801 6.51383 97.5932C6.73142 97.5063 7.90639 99.9398 8.12398 101.982C8.34157 104.024 10.8656 105.632 11.4313 105.632C11.9971 105.632 14.9127 93.8562 14.9563 85.8172C14.9998 77.7782 13.9989 70.9993 13.2591 70.0433C12.5193 69.0873 13.4821 64.8628 13.4821 64.8628Z" fill="#2F2E41"/>
<path d="M21.1364 135.876C21.1364 135.876 21.4845 134.92 22.703 135.225C23.9215 135.529 24.7484 134.442 24.7484 134.442C24.7484 134.442 25.4011 134.355 24.966 135.181C24.5308 136.007 24.1826 136.572 24.1826 136.572C24.1826 136.572 26.7937 142.525 25.0965 143.959C23.3993 145.393 21.441 144.524 21.441 144.524C21.441 144.524 19.5263 143.177 19.6133 139.613C19.6133 139.613 19.5263 138.484 18.4818 136.659C17.4374 134.833 16.6541 132.052 17.9161 131.531C19.1781 131.009 19.5029 130.99 19.5029 130.99C19.5029 130.99 18.9124 133.687 20.4378 134.63L21.1364 135.876Z" fill="#3F3D56"/>
<path d="M13.0421 142.612C13.0421 142.612 11.9977 140.656 13.7384 140.439C15.4791 140.222 17.3504 140.091 17.2633 141.004C17.1763 141.916 16.9587 143.307 16.9587 143.307L17.2633 144.306C17.2633 144.306 17.3504 146.783 17.655 147.087C17.9596 147.392 19.6133 149.999 16.0884 149.999C12.5634 149.999 11.519 149.608 11.8236 148.782C12.1283 147.957 12.2153 143.872 12.2153 143.872L13.0421 142.612Z" fill="#3F3D56"/>
<path d="M15.7402 55.1386C15.7402 55.1386 18.1772 55.7904 19.4392 56.0512C20.7013 56.3119 20.5707 55.5732 20.5707 55.5732C20.5707 55.5732 22.2244 55.7904 22.1373 55.6166C22.0503 55.4428 22.8336 54.5303 21.9198 53.4874C21.0059 52.4445 21.267 51.6623 21.267 51.6623H20.4837L20.2661 51.3581H19.0476C19.0476 51.3581 18.1337 51.0105 15.7402 51.3581C13.3468 51.7057 10.083 51.7927 9.82185 53.2266C9.56074 54.6606 8.2117 56.4422 8.69039 57.2679C9.16909 58.0935 11.9107 61.4829 12.1718 62.9169C12.4329 64.3509 13.6521 64.6695 13.6082 63.7715C13.5644 62.8734 12.3459 59.7448 13.3903 59.6144C14.4347 59.484 16.2189 56.8333 15.7402 55.1386Z" fill="#2F2E41"/>
<path d="M189.331 1.50806C188.468 1.55675 187.636 1.8446 186.927 2.33934C186.218 2.83408 185.662 3.51614 185.32 4.30906C184.316 6.73045 185.608 9.57473 187.547 11.3404C189.486 13.1061 191.977 14.1154 194.24 15.442C197.28 17.2239 200.011 19.6974 201.532 22.8725C203.053 26.0476 203.215 29.9807 201.427 33.014C199.768 35.8294 196.75 37.5144 193.873 39.0685" stroke="#3F3D56" stroke-miterlimit="10"/>
<path d="M191.887 3.4378C193.844 3.4378 195.431 2.66822 195.431 1.7189C195.431 0.769578 193.844 0 191.887 0C189.93 0 188.343 0.769578 188.343 1.7189C188.343 2.66822 189.93 3.4378 191.887 3.4378Z" fill="#066660"/>
<path d="M194.722 14.7624C196.68 14.7624 198.266 13.9928 198.266 13.0435C198.266 12.0942 196.68 11.3246 194.722 11.3246C192.765 11.3246 191.178 12.0942 191.178 13.0435C191.178 13.9928 192.765 14.7624 194.722 14.7624Z" fill="#066660"/>
<path d="M188.242 16.5823C190.199 16.5823 191.786 15.8128 191.786 14.8634C191.786 13.9141 190.199 13.1445 188.242 13.1445C186.284 13.1445 184.698 13.9141 184.698 14.8634C184.698 15.8128 186.284 16.5823 188.242 16.5823Z" fill="#066660"/>
<path d="M198.368 26.0869C200.325 26.0869 201.912 25.3173 201.912 24.368C201.912 23.4186 200.325 22.649 198.368 22.649C196.41 22.649 194.824 23.4186 194.824 24.368C194.824 25.3173 196.41 26.0869 198.368 26.0869Z" fill="#066660"/>
<path d="M205.456 26.0869C207.413 26.0869 209 25.3173 209 24.368C209 23.4186 207.413 22.649 205.456 22.649C203.498 22.649 201.912 23.4186 201.912 24.368C201.912 25.3173 203.498 26.0869 205.456 26.0869Z" fill="#066660"/>
</g>
<defs>
<clipPath id="clip0">
<rect width="209" height="150" fill="white"/>
</clipPath>
</defs>
</svg>
