<svg width="300" height="150" viewBox="0 0 300 150" fill="none" xmlns="http://www.w3.org/2000/svg">
<g opacity="0.1">
<path opacity="0.1" d="M254.212 87.5327C255.498 87.5327 256.541 86.2322 256.541 84.6279C256.541 83.0237 255.498 81.7231 254.212 81.7231C252.925 81.7231 251.882 83.0237 251.882 84.6279C251.882 86.2322 252.925 87.5327 254.212 87.5327Z" fill="#3F3D56"/>
<path opacity="0.1" d="M252.372 72.197C252.049 71.6569 251.881 71.0444 251.888 70.4223C251.888 68.8172 252.931 67.5149 254.215 67.5149C255.498 67.5149 256.544 68.8198 256.544 70.4223C256.551 71.0448 256.383 71.6577 256.057 72.197C256.376 72.7394 256.544 73.351 256.544 73.973C256.544 74.5951 256.376 75.2067 256.057 75.749C256.376 76.2914 256.544 76.903 256.544 77.5251C256.544 78.1471 256.376 78.7587 256.057 79.3011C256.383 79.8404 256.551 80.4533 256.544 81.0758C256.544 82.6809 255.501 83.9832 254.215 83.9832C252.928 83.9832 251.888 82.6783 251.888 81.0758C251.881 80.4537 252.049 79.8412 252.372 79.3011C252.056 78.7579 251.889 78.1466 251.889 77.5251C251.889 76.9035 252.056 76.2922 252.372 75.749C252.056 75.2059 251.889 74.5946 251.889 73.973C251.889 73.3515 252.056 72.7402 252.372 72.197Z" fill="#3F3D56"/>
<path opacity="0.1" d="M254.212 69.7752C255.498 69.7752 256.541 68.4746 256.541 66.8704C256.541 65.2661 255.498 63.9656 254.212 63.9656C252.925 63.9656 251.882 65.2661 251.882 66.8704C251.882 68.4746 252.925 69.7752 254.212 69.7752Z" fill="#3F3D56"/>
<path opacity="0.1" d="M254.212 66.2229C255.498 66.2229 256.541 64.9224 256.541 63.3181C256.541 61.7139 255.498 60.4133 254.212 60.4133C252.925 60.4133 251.882 61.7139 251.882 63.3181C251.882 64.9224 252.925 66.2229 254.212 66.2229Z" fill="#3F3D56"/>
<path opacity="0.1" d="M262.927 39.0124C263.247 38.6274 263.537 38.221 263.795 37.7962L257.677 36.8383L264.293 36.8853C264.928 35.5683 265.274 34.1416 265.311 32.6926C265.347 31.2437 265.074 29.8028 264.506 28.458L255.63 32.8504L263.817 27.1087C263.051 25.8425 262.02 24.7403 260.787 23.8709C259.555 23.0016 258.148 22.3838 256.654 22.0561C255.16 21.7284 253.611 21.6979 252.105 21.9663C250.598 22.2348 249.165 22.7966 247.896 23.6165C246.627 24.4365 245.549 25.497 244.729 26.732C243.909 27.967 243.365 29.3499 243.13 30.7943C242.896 32.2387 242.976 33.7138 243.366 35.1273C243.757 36.5408 244.448 37.8624 245.398 39.0097C244.902 39.6111 244.476 40.2612 244.125 40.9489L252.063 44.882L243.613 42.1755C243.018 43.8513 242.871 45.6419 243.185 47.3855C243.5 49.129 244.265 50.7703 245.412 52.1609C244.116 53.7288 243.309 55.6128 243.084 57.5974C242.859 59.5819 243.224 61.5869 244.138 63.3828C245.052 65.1787 246.477 66.6931 248.252 67.7526C250.026 68.8122 252.077 69.3741 254.171 69.3741C256.264 69.3741 258.315 68.8122 260.09 67.7526C261.864 66.6931 263.29 65.1787 264.204 63.3828C265.117 61.5869 265.483 59.5819 265.257 57.5974C265.032 55.6128 264.226 53.7288 262.93 52.1609C264.476 50.2867 265.317 47.9713 265.317 45.5866C265.317 43.202 264.476 40.8865 262.93 39.0124H262.927Z" fill="#066660"/>
</g>
<path opacity="0.1" d="M150 131.013C232.843 131.013 300 129.978 300 128.701C300 127.424 232.843 126.388 150 126.388C67.1573 126.388 0 127.424 0 128.701C0 129.978 67.1573 131.013 150 131.013Z" fill="#066660"/>
<path opacity="0.1" d="M150 150C232.843 150 300 148.965 300 147.688C300 146.411 232.843 145.375 150 145.375C67.1573 145.375 0 146.411 0 147.688C0 148.965 67.1573 150 150 150Z" fill="#066660"/>
<path opacity="0.1" d="M150 91.3874C232.843 91.3874 300 90.3521 300 89.075C300 87.798 232.843 86.7627 150 86.7627C67.1573 86.7627 0 87.798 0 89.075C0 90.3521 67.1573 91.3874 150 91.3874Z" fill="#066660"/>
<path opacity="0.1" d="M150 111.199C232.843 111.199 300 110.164 300 108.887C300 107.609 232.843 106.574 150 106.574C67.1573 106.574 0 107.609 0 108.887C0 110.164 67.1573 111.199 150 111.199Z" fill="#066660"/>
<path d="M181.837 127.952C182.551 126.689 181.741 125.144 180.81 124.019C179.88 122.894 178.741 121.722 178.766 120.289C178.801 118.23 181.095 117.011 182.926 115.92C184.286 115.107 185.54 114.144 186.662 113.049C187.132 112.628 187.52 112.132 187.809 111.583C188.19 110.779 188.179 109.86 188.154 108.973C188.076 106.034 187.923 103.097 187.697 100.162" stroke="#3F3D56" stroke-width="4" stroke-miterlimit="10"/>
<path d="M191.182 100.016C191.155 99.4774 190.987 98.9541 190.693 98.4939C190.399 98.0337 189.988 97.6515 189.498 97.3824L188.743 98.8048L188.767 97.0822C188.082 96.8899 187.351 96.9101 186.678 97.14C186.006 97.3698 185.428 97.7974 185.027 98.361C184.626 98.9246 184.423 99.5951 184.448 100.276C184.473 100.956 184.724 101.612 185.165 102.148C185.606 102.683 186.214 103.072 186.901 103.256C187.589 103.441 188.32 103.413 188.989 103.176C189.659 102.939 190.232 102.505 190.626 101.937C191.02 101.369 191.215 100.696 191.182 100.016Z" fill="#066660"/>
<path d="M185.171 121.761C184.832 122.389 184.285 122.893 183.615 123.195C182.946 123.497 182.19 123.581 181.466 123.432C180.741 123.283 180.089 122.911 179.608 122.373C179.128 121.835 178.847 121.162 178.809 120.456C178.784 120.011 178.859 119.566 179.028 119.151C179.276 118.546 179.711 118.026 180.275 117.661C180.84 117.296 181.507 117.102 182.188 117.106C182.87 117.11 183.535 117.31 184.095 117.681C184.654 118.053 185.083 118.577 185.324 119.185L183.219 120.819L185.535 120.297C185.537 120.806 185.413 121.308 185.171 121.761Z" fill="#066660"/>
<path d="M183.506 115.523C182.68 115.561 181.867 115.306 181.224 114.809C180.582 114.311 180.153 113.606 180.021 112.826C179.89 112.047 180.063 111.249 180.509 110.584C180.955 109.919 181.642 109.433 182.439 109.221L182.42 110.544L183.183 109.103C184.076 109.063 184.949 109.363 185.61 109.937C186.271 110.511 186.666 111.312 186.708 112.163C186.749 113.015 186.435 113.847 185.833 114.477C185.231 115.107 184.391 115.484 183.498 115.523H183.506Z" fill="#066660"/>
<path d="M191.688 110.332C191.166 110.358 190.644 110.268 190.165 110.068C189.685 109.868 189.261 109.565 188.926 109.181C188.591 108.798 188.354 108.346 188.234 107.861C188.114 107.375 188.115 106.87 188.235 106.384C188.355 105.899 188.593 105.447 188.928 105.064C189.263 104.681 189.688 104.378 190.167 104.179C190.647 103.98 191.168 103.889 191.691 103.916C192.213 103.942 192.722 104.083 193.177 104.33L192.583 105.896L193.796 104.752C194.286 105.181 194.632 105.739 194.791 106.355C194.95 106.971 194.913 107.618 194.687 108.215C194.46 108.811 194.053 109.33 193.518 109.707C192.982 110.083 192.342 110.3 191.677 110.33L191.688 110.332Z" fill="#066660"/>
<path opacity="0.1" d="M190.727 100.872C189.95 100.953 189.194 101.182 188.412 101.229C187.629 101.276 186.769 101.096 186.282 100.519C186.053 100.183 185.844 99.8347 185.658 99.4755C185.445 99.1588 185.154 98.897 184.809 98.7134C184.591 99.1206 184.467 99.5674 184.445 100.024C184.422 100.481 184.502 100.937 184.679 101.361C184.857 101.786 185.127 102.17 185.472 102.487C185.817 102.805 186.23 103.048 186.681 103.201C187.133 103.354 187.614 103.414 188.092 103.376C188.569 103.337 189.033 103.203 189.452 102.98C189.871 102.757 190.235 102.452 190.52 102.084C190.805 101.717 191.004 101.295 191.105 100.848C190.982 100.851 190.853 100.859 190.727 100.872Z" fill="black"/>
<path opacity="0.1" d="M191.688 110.332C191.107 110.359 190.529 110.241 190.01 109.991C189.49 109.741 189.048 109.367 188.725 108.906C188.403 108.444 188.211 107.911 188.168 107.358C188.126 106.805 188.234 106.251 188.483 105.75C188.75 105.922 188.979 106.141 189.159 106.397C189.36 106.763 189.583 107.117 189.827 107.459C190.352 108.046 191.25 108.242 192.063 108.203C192.876 108.164 193.661 107.942 194.472 107.877C194.584 107.877 194.696 107.861 194.811 107.858C194.643 108.538 194.248 109.148 193.684 109.594C193.121 110.041 192.42 110.3 191.688 110.332Z" fill="black"/>
<path opacity="0.1" d="M183.506 115.523C182.931 115.549 182.359 115.434 181.844 115.189C181.329 114.944 180.888 114.577 180.564 114.123C180.24 113.67 180.043 113.145 179.992 112.598C179.941 112.051 180.038 111.501 180.274 111C180.551 111.175 180.794 111.396 180.988 111.653C181.209 112.028 181.453 112.389 181.719 112.736C182.286 113.339 183.244 113.553 184.103 113.519C184.963 113.485 185.745 113.308 186.567 113.258C186.362 113.89 185.959 114.446 185.411 114.851C184.864 115.256 184.199 115.491 183.506 115.523Z" fill="black"/>
<path opacity="0.1" d="M185.171 121.761C184.832 122.389 184.285 122.893 183.615 123.195C182.946 123.497 182.19 123.581 181.466 123.432C180.741 123.283 180.089 122.911 179.608 122.373C179.128 121.835 178.847 121.162 178.809 120.456C178.784 120.011 178.859 119.566 179.028 119.151C179.306 119.325 179.555 119.537 179.767 119.78C180.088 120.151 180.298 120.563 180.671 120.921C181.358 121.565 182.472 121.831 183.46 121.855C184.032 121.857 184.603 121.825 185.171 121.761Z" fill="black"/>
<path d="M14.8659 109.161C15.5803 107.897 14.7701 106.352 13.8394 105.227C12.9088 104.103 11.7701 102.926 11.7947 101.498C11.8303 99.4388 14.1241 98.2199 15.9553 97.129C17.3152 96.316 18.5693 95.3523 19.6916 94.2581C20.1609 93.837 20.5491 93.3405 20.8385 92.7914C21.219 91.9876 21.208 91.0689 21.1834 90.1815C21.1031 87.2428 20.9507 84.3058 20.7263 81.3706" stroke="#3F3D56" stroke-width="4" stroke-miterlimit="10"/>
<path d="M24.2108 81.2245C24.1844 80.6861 24.0163 80.1628 23.7222 79.7026C23.428 79.2424 23.0171 78.8602 22.5274 78.5911L21.7719 80.0135L21.7966 78.291C21.1114 78.0986 20.3799 78.1188 19.7076 78.3487C19.0353 78.5785 18.457 79.0061 18.0561 79.5698C17.6552 80.1334 17.4526 80.8039 17.4774 81.4845C17.5022 82.165 17.7531 82.8205 18.194 83.3563C18.6349 83.892 19.243 84.2803 19.9304 84.4651C20.6178 84.6499 21.3491 84.6217 22.0185 84.3845C22.688 84.1473 23.2612 83.7134 23.6552 83.1454C24.0492 82.5774 24.2438 81.9048 24.2108 81.2245Z" fill="#066660"/>
<path d="M18.1998 102.97C17.8609 103.598 17.3142 104.102 16.6445 104.404C15.9747 104.706 15.2192 104.79 14.4949 104.641C13.7705 104.492 13.1178 104.12 12.6376 103.582C12.1574 103.044 11.8765 102.37 11.8385 101.665C11.8133 101.22 11.888 100.775 12.0575 100.36C12.3056 99.7545 12.7405 99.235 13.3046 98.8699C13.8688 98.5048 14.5357 98.3113 15.2175 98.315C15.8993 98.3187 16.564 98.5193 17.1237 98.8905C17.6835 99.2616 18.1122 99.7858 18.3531 100.394L16.2482 102.028L18.5639 101.506C18.5665 102.014 18.4417 102.516 18.1998 102.97Z" fill="#066660"/>
<path d="M16.5355 96.7324C15.7086 96.7695 14.8963 96.5151 14.2535 96.0177C13.6107 95.5202 13.1825 94.8146 13.0506 94.0354C12.9186 93.2561 13.0921 92.4579 13.5379 91.7928C13.9838 91.1278 14.6709 90.6425 15.468 90.4295L15.4489 91.7527L16.2125 90.3121C16.6547 90.2924 17.0965 90.3559 17.5129 90.499C17.9293 90.6421 18.3121 90.8621 18.6393 91.1462C18.9666 91.4304 19.2319 91.7732 19.4202 92.1551C19.6085 92.5371 19.7161 92.9506 19.7367 93.3722C19.7574 93.7937 19.6908 94.215 19.5407 94.6121C19.3906 95.0091 19.1599 95.374 18.8619 95.686C18.5639 95.9981 18.2043 96.2511 17.8038 96.4306C17.4032 96.6101 16.9695 96.7127 16.5273 96.7324H16.5355Z" fill="#066660"/>
<path d="M24.7171 91.5414C24.1947 91.5671 23.6731 91.4765 23.1938 91.2768C22.7145 91.077 22.2905 90.7736 21.9554 90.3905C21.6204 90.0074 21.3835 89.5553 21.2635 89.0698C21.1435 88.5843 21.1438 88.0788 21.2642 87.5934C21.3846 87.108 21.6219 86.656 21.9572 86.2732C22.2926 85.8904 22.7169 85.5873 23.1964 85.3879C23.6759 85.1886 24.1975 85.0984 24.7199 85.1245C25.2423 85.1507 25.7512 85.2925 26.2062 85.5386L25.6122 87.1046L26.8248 85.9614C27.3152 86.3902 27.6616 86.9478 27.8201 87.5639C27.9787 88.18 27.9424 88.8271 27.7158 89.4236C27.4892 90.0201 27.0825 90.5393 26.5469 90.9157C26.0113 91.2921 25.3708 91.5089 24.7062 91.5388L24.7171 91.5414Z" fill="#066660"/>
<path opacity="0.1" d="M23.7564 82.0805C22.979 82.1614 22.2235 82.3911 21.4407 82.4381C20.6579 82.485 19.7984 82.305 19.3111 81.7282C19.082 81.3921 18.8736 81.0435 18.687 80.6842C18.4743 80.3675 18.1828 80.1057 17.8385 79.9221C17.6205 80.3293 17.4962 80.7761 17.4738 81.2328C17.4514 81.6895 17.5315 82.1454 17.7086 82.5702C17.8858 82.995 18.1561 83.3788 18.5013 83.6961C18.8465 84.0133 19.2588 84.2567 19.7105 84.4099C20.1623 84.5631 20.6431 84.6226 21.1209 84.5844C21.5987 84.5463 22.0624 84.4113 22.4811 84.1886C22.8999 83.9659 23.2639 83.6605 23.549 83.2929C23.834 82.9254 24.0335 82.504 24.1341 82.057C24.011 82.0596 23.8823 82.0675 23.7564 82.0805Z" fill="black"/>
<path opacity="0.1" d="M24.7171 91.5415C24.1361 91.5677 23.5579 91.4501 23.0387 91.2001C22.5196 90.9501 22.0771 90.5762 21.7544 90.1148C21.4317 89.6534 21.2398 89.1202 21.1972 88.5671C21.1547 88.014 21.2631 87.4598 21.5118 86.9585C21.7789 87.1306 22.0085 87.3504 22.1879 87.6057C22.3892 87.9716 22.6122 88.3263 22.8558 88.668C23.3813 89.2552 24.2792 89.451 25.0921 89.4118C25.9051 89.3727 26.6907 89.1508 27.5009 89.0856C27.6131 89.0856 27.7253 89.0699 27.8403 89.0673C27.6726 89.7474 27.277 90.3569 26.7135 90.8033C26.1499 91.2498 25.449 91.5089 24.7171 91.5415Z" fill="black"/>
<path opacity="0.1" d="M16.5356 96.7324C15.9607 96.7581 15.3884 96.6429 14.8733 96.3978C14.3583 96.1527 13.9177 95.7859 13.5935 95.3324C13.2694 94.8789 13.0725 94.3537 13.0216 93.807C12.9707 93.2603 13.0676 92.7103 13.303 92.2095C13.5807 92.3838 13.8228 92.6049 14.0174 92.8619C14.2381 93.2366 14.4822 93.5983 14.7482 93.9451C15.3148 94.5479 16.2729 94.7619 17.1324 94.728C17.9918 94.6941 18.7747 94.5166 19.5959 94.467C19.3915 95.0986 18.9881 95.6548 18.4406 96.0601C17.8931 96.4654 17.228 96.7001 16.5356 96.7324Z" fill="black"/>
<path opacity="0.1" d="M18.1998 102.97C17.8609 103.598 17.3142 104.102 16.6445 104.404C15.9747 104.706 15.2192 104.79 14.4949 104.641C13.7705 104.492 13.1178 104.12 12.6376 103.582C12.1574 103.044 11.8765 102.371 11.8385 101.665C11.8133 101.22 11.888 100.775 12.0575 100.36C12.335 100.534 12.5841 100.746 12.7965 100.989C13.1168 101.36 13.3276 101.772 13.6998 102.13C14.3869 102.774 15.5009 103.04 16.4891 103.064C17.0608 103.066 17.6321 103.034 18.1998 102.97Z" fill="black"/>
<path d="M126.055 87.6632C125.34 86.4026 126.15 84.8575 127.084 83.7327C128.017 82.6078 129.15 81.436 129.126 80.0032C129.093 77.9414 126.799 76.7252 124.965 75.6342C123.606 74.8217 122.353 73.8579 121.232 72.7634C120.76 72.3445 120.371 71.8486 120.082 71.2992C119.704 70.4928 119.715 69.5767 119.737 68.6894C119.819 65.7506 119.972 62.8137 120.194 59.8784" stroke="#3F3D56" stroke-width="4" stroke-miterlimit="10"/>
<path d="M116.713 59.7296C116.738 59.1914 116.906 58.6682 117.2 58.208C117.493 57.7478 117.904 57.3654 118.393 57.0962L119.149 58.5186L119.127 56.7961C119.487 56.6964 119.861 56.6532 120.235 56.6682C120.901 56.6978 121.542 56.9148 122.079 57.292C122.615 57.6692 123.022 58.1895 123.248 58.7871C123.474 59.3847 123.509 60.0329 123.349 60.6496C123.189 61.2664 122.841 61.824 122.348 62.252C121.856 62.6799 121.241 62.9591 120.582 63.0541C119.924 63.1491 119.25 63.0557 118.647 62.7857C118.044 62.5158 117.538 62.0813 117.194 61.5373C116.849 60.9933 116.682 60.3642 116.713 59.7296Z" fill="#066660"/>
<path d="M122.721 81.4751C123.074 82.1308 123.653 82.6507 124.361 82.9477C125.068 83.2447 125.861 83.3006 126.607 83.1061C127.353 82.9117 128.006 82.4786 128.456 81.8796C128.907 81.2806 129.128 80.5521 129.082 79.8163C129.036 79.0804 128.726 78.3821 128.204 77.8383C127.682 77.2945 126.98 76.9383 126.215 76.8296C125.45 76.7209 124.67 76.8661 124.004 77.241C123.339 77.616 122.828 78.1977 122.559 78.8887L124.664 80.5225L122.349 80.0005C122.347 80.5134 122.474 81.0192 122.721 81.4751Z" fill="#066660"/>
<path d="M124.385 75.2376C125.212 75.2756 126.025 75.0217 126.669 74.5245C127.312 74.0273 127.741 73.3216 127.873 72.5421C128.005 71.7626 127.832 70.9639 127.386 70.2985C126.94 69.6332 126.253 69.1477 125.455 68.9348L125.472 70.258L124.708 68.8174C123.815 68.7755 122.942 69.0734 122.28 69.6456C121.618 70.2177 121.221 71.0173 121.177 71.8683C121.158 72.239 121.207 72.61 121.322 72.9644C121.524 73.5984 121.927 74.1573 122.475 74.5643C123.024 74.9713 123.691 75.2065 124.385 75.2376Z" fill="#066660"/>
<path d="M116.206 70.0412C116.729 70.0666 117.25 69.9757 117.729 69.7756C118.208 69.5756 118.632 69.272 118.967 68.8888C119.301 68.5056 119.538 68.0534 119.658 67.5679C119.777 67.0825 119.777 66.5771 119.656 66.0919C119.536 65.6066 119.298 65.1548 118.963 64.7721C118.627 64.3895 118.203 64.0866 117.724 63.8874C117.244 63.6882 116.723 63.5981 116.2 63.6243C115.678 63.6506 115.169 63.7924 114.714 64.0385L115.311 65.6044L114.085 64.4848C113.758 64.7673 113.493 65.1088 113.305 65.4896C113.117 65.8703 113.01 66.2828 112.99 66.7032C112.974 67.0005 113.002 67.2984 113.075 67.5879C113.247 68.2656 113.645 68.8716 114.21 69.3142C114.775 69.7568 115.476 70.012 116.206 70.0412Z" fill="#066660"/>
<path opacity="0.1" d="M117.167 60.5856C117.944 60.6665 118.7 60.8962 119.48 60.9432C120.26 60.9902 121.122 60.8101 121.612 60.2333C121.84 59.8971 122.048 59.5486 122.234 59.1893C122.447 58.8725 122.74 58.6108 123.085 58.4272C123.303 58.8345 123.428 59.2816 123.45 59.7385C123.473 60.1955 123.393 60.6517 123.216 61.0768C123.039 61.5019 122.768 61.886 122.423 62.2034C122.077 62.5208 121.665 62.7642 121.213 62.9173C120.76 63.0704 120.279 63.1297 119.801 63.0912C119.323 63.0528 118.859 62.9174 118.44 62.6942C118.022 62.471 117.658 62.165 117.373 61.7969C117.088 61.4288 116.889 61.0069 116.789 60.5595C116.912 60.5621 117.038 60.5726 117.167 60.5856Z" fill="black"/>
<path opacity="0.1" d="M116.206 70.0412C116.787 70.0667 117.365 69.9486 117.883 69.6983C118.402 69.4481 118.844 69.0743 119.167 68.6131C119.489 68.152 119.681 67.6192 119.724 67.0664C119.767 66.5136 119.659 65.9596 119.411 65.4583C119.144 65.6302 118.913 65.85 118.733 66.1055C118.531 66.4714 118.308 66.826 118.065 67.1677C117.542 67.7549 116.644 67.9507 115.831 67.9115C115.018 67.8724 114.233 67.6506 113.422 67.5853C113.31 67.5853 113.195 67.5696 113.083 67.567C113.25 68.2473 113.646 68.857 114.209 69.3036C114.773 69.7501 115.474 70.0091 116.206 70.0412Z" fill="black"/>
<path opacity="0.1" d="M124.385 75.2375C124.96 75.2639 125.533 75.1492 126.048 74.9044C126.564 74.6595 127.005 74.2926 127.329 73.8389C127.654 73.3851 127.85 72.8596 127.901 72.3126C127.951 71.7656 127.854 71.2154 127.618 70.7146C127.34 70.8884 127.099 71.1096 126.906 71.3671C126.685 71.7417 126.441 72.1034 126.175 72.4502C125.606 73.0531 124.651 73.2671 123.788 73.2331C122.926 73.1992 122.146 73.0217 121.325 72.9721C121.528 73.6043 121.931 74.1611 122.479 74.5666C123.027 74.972 123.692 75.2064 124.385 75.2375Z" fill="black"/>
<path opacity="0.1" d="M122.721 81.4751C123.116 82.2021 123.788 82.7577 124.599 83.0282C125.41 83.2987 126.298 83.2638 127.083 82.9305C127.868 82.5973 128.489 81.9909 128.821 81.2352C129.152 80.4796 129.168 79.6319 128.866 78.8652C128.587 79.0375 128.338 79.2496 128.127 79.4942C127.807 79.8648 127.579 80.2772 127.224 80.6347C126.534 81.2794 125.422 81.5456 124.432 81.5691C123.86 81.5694 123.289 81.538 122.721 81.4751Z" fill="black"/>
<path d="M213.43 88.2504C228.541 88.2504 240.791 76.5702 240.791 62.162C240.791 47.7539 228.541 36.0737 213.43 36.0737C198.319 36.0737 186.068 47.7539 186.068 62.162C186.068 76.5702 198.319 88.2504 213.43 88.2504Z" fill="#3F3D56"/>
<path d="M225.175 68.8903C224.223 67.982 221.932 66.6119 220.796 66.1003C219.484 65.5001 219.003 65.5105 218.075 66.1499C217.303 66.6719 216.802 67.1756 215.915 66.9903C215.028 66.805 213.271 65.5418 211.571 63.9263C209.871 62.3108 208.552 60.6457 208.363 59.787C208.174 58.9284 208.694 58.4612 209.247 57.7252C209.915 56.8405 209.934 56.3811 209.299 55.131C208.752 54.0479 207.331 51.8687 206.37 50.9552C205.41 50.0418 205.202 50.2427 204.676 50.4332C204.135 50.6494 203.616 50.9115 203.124 51.2162C202.172 51.8243 201.638 52.3306 201.263 53.0927C200.888 53.8548 200.464 55.2693 202.645 58.9728C204.254 61.8059 206.293 64.3975 208.694 66.6641C211.08 68.9592 213.807 70.9062 216.788 72.4423C220.67 74.5302 222.156 74.1153 222.955 73.7603C223.755 73.4054 224.286 72.9017 224.921 71.9856C225.241 71.5171 225.516 71.0218 225.742 70.5058C225.922 70.0047 226.136 69.8011 225.175 68.8903Z" fill="#077972"/>
<path opacity="0.1" d="M213.43 36.0764C208.015 36.0738 202.721 37.6026 198.217 40.4694C193.714 43.3362 190.203 47.4121 188.13 52.1816C186.057 56.951 185.513 62.1997 186.569 67.2636C187.625 72.3275 190.232 76.979 194.061 80.6298C197.89 84.2806 202.768 86.7665 208.079 87.7731C213.39 88.7797 218.895 88.2618 223.897 86.2848C228.899 84.3078 233.174 80.9607 236.181 76.6667C239.188 72.3728 240.791 67.3251 240.788 62.1621C240.785 55.2448 237.901 48.6118 232.771 43.7206C227.641 38.8293 220.685 36.0799 213.43 36.0764ZM213.43 84.7819C208.738 84.7819 204.151 83.4553 200.25 80.9698C196.348 78.4843 193.308 74.9516 191.512 70.8184C189.717 66.6851 189.247 62.137 190.162 57.7492C191.077 53.3614 193.337 49.331 196.655 46.1675C199.972 43.0041 204.2 40.8498 208.802 39.977C213.403 39.1042 218.173 39.5521 222.508 41.2642C226.843 42.9762 230.548 45.8754 233.155 49.5952C235.762 53.3151 237.153 57.6884 237.153 62.1621C237.153 65.1326 236.54 68.074 235.347 70.8184C234.155 73.5627 232.408 76.0563 230.205 78.1567C228.002 80.2572 225.387 81.9233 222.508 83.0601C219.63 84.1968 216.545 84.7819 213.43 84.7819Z" fill="black"/>
<path d="M150.569 127.876C165.681 127.876 177.931 116.196 177.931 101.788C177.931 87.3796 165.681 75.6995 150.569 75.6995C135.458 75.6995 123.208 87.3796 123.208 101.788C123.208 116.196 135.458 127.876 150.569 127.876Z" fill="#3F3D56"/>
<path d="M166.13 93.906L157.938 101.853C157.924 101.866 157.912 101.882 157.904 101.899C157.896 101.917 157.892 101.936 157.892 101.955C157.892 101.974 157.896 101.993 157.904 102.01C157.912 102.028 157.924 102.043 157.938 102.057L163.686 107.884C163.824 108.017 163.917 108.184 163.955 108.367C163.993 108.55 163.973 108.739 163.899 108.911C163.824 109.083 163.698 109.23 163.536 109.334C163.374 109.438 163.183 109.494 162.988 109.495C162.725 109.494 162.474 109.395 162.287 109.218L156.569 103.411C156.54 103.384 156.501 103.368 156.46 103.368C156.419 103.368 156.38 103.384 156.35 103.411L154.957 104.753C154.387 105.309 153.705 105.751 152.953 106.052C152.201 106.354 151.393 106.509 150.578 106.509C149.746 106.505 148.924 106.344 148.159 106.034C147.394 105.724 146.701 105.271 146.121 104.703L144.783 103.398C144.754 103.371 144.714 103.355 144.673 103.355C144.632 103.355 144.593 103.371 144.564 103.398L138.859 109.192C138.768 109.28 138.659 109.349 138.539 109.397C138.419 109.444 138.29 109.469 138.16 109.469C138.03 109.469 137.902 109.444 137.782 109.397C137.662 109.349 137.553 109.28 137.461 109.192C137.368 109.105 137.295 109.001 137.245 108.886C137.195 108.772 137.17 108.649 137.17 108.525C137.17 108.401 137.195 108.278 137.245 108.164C137.295 108.05 137.368 107.946 137.461 107.858L143.187 102.044C143.212 102.015 143.226 101.979 143.226 101.942C143.226 101.904 143.212 101.868 143.187 101.84L134.994 93.8929C134.973 93.8727 134.947 93.859 134.917 93.8534C134.888 93.8478 134.858 93.8506 134.83 93.8615C134.802 93.8724 134.779 93.8909 134.762 93.9146C134.746 93.9384 134.737 93.9662 134.737 93.9947V109.897C134.739 110.511 134.996 111.1 135.452 111.535C135.908 111.97 136.526 112.215 137.171 112.217H163.96C164.605 112.215 165.222 111.97 165.678 111.535C166.134 111.1 166.391 110.511 166.393 109.897V94.0078C166.395 93.9782 166.386 93.9489 166.37 93.9239C166.353 93.899 166.328 93.8796 166.3 93.8685C166.271 93.8573 166.239 93.855 166.209 93.8617C166.179 93.8684 166.151 93.8839 166.13 93.906Z" fill="#077972"/>
<path d="M150.569 104.622C151.125 104.627 151.675 104.526 152.189 104.324C152.702 104.123 153.168 103.824 153.558 103.448L165.49 91.8677C165.066 91.5331 164.535 91.3487 163.985 91.3457H137.176C136.626 91.3474 136.094 91.532 135.671 91.8677L147.605 103.448C147.992 103.822 148.453 104.119 148.963 104.321C149.472 104.523 150.018 104.625 150.569 104.622Z" fill="#077972"/>
<path opacity="0.1" d="M150.224 75.7019C144.81 75.6993 139.516 77.2281 135.012 80.0949C130.509 82.9617 126.998 87.0376 124.925 91.8071C122.851 96.5765 122.308 101.825 123.364 106.889C124.42 111.953 127.027 116.605 130.856 120.255C134.685 123.906 139.563 126.392 144.874 127.399C150.185 128.405 155.69 127.887 160.692 125.91C165.694 123.933 169.969 120.586 172.976 116.292C175.982 111.998 177.586 106.951 177.583 101.788C177.579 94.8703 174.696 88.2373 169.566 83.3461C164.436 78.4548 157.479 75.7054 150.224 75.7019ZM150.224 124.407C145.532 124.407 140.946 123.081 137.044 120.595C133.143 118.11 130.102 114.577 128.307 110.444C126.511 106.311 126.041 101.763 126.957 97.3747C127.872 92.9869 130.132 88.9564 133.449 85.793C136.767 82.6296 140.994 80.4752 145.596 79.6025C150.198 78.7297 154.968 79.1776 159.303 80.8897C163.638 82.6017 167.343 85.5009 169.95 89.2207C172.557 92.9405 173.948 97.3139 173.948 101.788C173.948 107.787 171.449 113.54 167 117.782C162.55 122.024 156.516 124.407 150.224 124.407Z" fill="black"/>
<path d="M85.6341 108.393C100.745 108.393 112.995 96.7133 112.995 82.3051C112.995 67.8969 100.745 56.2168 85.6341 56.2168C70.5229 56.2168 58.2728 67.8969 58.2728 82.3051C58.2728 96.7133 70.5229 108.393 85.6341 108.393Z" fill="#3F3D56"/>
<path d="M85.6342 69.822L74.7263 93.8172L75.7446 94.7881L85.6369 90.628L95.5293 94.7881L96.5475 93.8172L85.6342 69.822Z" fill="#077972"/>
<path opacity="0.1" d="M85.6341 56.2087C80.2198 56.2062 74.9263 57.7346 70.4232 60.6008C65.92 63.467 62.4095 67.5422 60.3357 72.3109C58.2619 77.0796 57.7178 82.3276 58.7725 87.3911C59.8271 92.4546 62.433 97.1062 66.2605 100.757C70.088 104.409 74.9653 106.896 80.2753 107.904C85.5854 108.912 91.0898 108.396 96.0922 106.421C101.095 104.446 105.37 101.101 108.379 96.8085C111.387 92.5163 112.993 87.4699 112.993 82.3075C112.993 75.3879 110.111 68.7516 104.98 63.8575C99.85 58.9634 92.8913 56.2122 85.6341 56.2087ZM85.6341 104.914C80.9415 104.914 76.3542 103.587 72.4526 101.101C68.551 98.6151 65.5103 95.0816 63.7151 90.9477C61.92 86.8137 61.451 82.2649 62.3674 77.8767C63.2839 73.4886 65.5447 69.4581 68.8639 66.2952C72.1831 63.1323 76.4115 60.979 81.0143 60.1077C85.6171 59.2364 90.3875 59.6862 94.7222 61.4002C99.0569 63.1143 102.761 66.0155 105.366 69.7371C107.971 73.4586 109.36 77.8332 109.358 82.3075C109.357 88.3062 106.857 94.059 102.408 98.3004C97.9593 102.542 91.9255 104.925 85.6341 104.925V104.914Z" fill="black"/>
<path d="M215.948 115.161C215.7 114.583 215.445 114.007 215.184 113.433C214.969 112.873 214.653 112.352 214.251 111.896C214.098 111.731 213.912 111.598 213.703 111.504C213.474 111.424 213.233 111.378 212.989 111.369C212.617 111.324 212.241 111.314 211.867 111.34C211.722 111.298 211.557 111.243 211.396 111.181C212.206 110.978 212.926 110.532 213.45 109.91C213.975 109.287 214.275 108.52 214.308 107.723C214.308 107.67 214.308 107.616 214.308 107.563C214.31 107.075 214.212 106.591 214.018 106.139C213.824 105.687 213.538 105.276 213.177 104.929C212.817 104.582 212.388 104.306 211.916 104.118C211.443 103.929 210.936 103.831 210.424 103.829C209.703 103.827 208.996 104.02 208.385 104.385C207.578 104.21 206.732 104.301 205.986 104.644C205.241 104.987 204.639 105.561 204.279 106.271C203.826 106.685 203.467 107.184 203.227 107.737C202.987 108.289 202.87 108.883 202.883 109.482C202.883 109.536 202.883 109.594 202.883 109.646C202.954 111.674 204.328 113.3 206.064 113.464C205.878 113.544 205.708 113.652 205.56 113.785C205.029 114.273 204.942 115.048 204.884 115.753L204.843 116.275L203.923 116.588C203.894 116.598 203.868 116.616 203.849 116.639C203.829 116.662 203.816 116.689 203.812 116.719C203.808 116.748 203.812 116.778 203.825 116.805C203.837 116.832 203.857 116.856 203.882 116.873L204.761 117.47C204.761 117.52 204.761 117.57 204.761 117.619C204.761 117.669 204.761 117.731 204.777 117.789C204.627 117.915 204.511 118.073 204.438 118.251C204.352 118.525 204.325 118.812 204.358 119.096L204.391 119.825C204.387 120.373 204.465 120.918 204.624 121.445C204.739 121.769 205.237 122.549 205.596 122.554C205.265 123.99 205.177 127.017 205.177 127.017C205.136 127.057 205.251 127.093 205.451 127.124C205.648 128.565 206.291 132.605 207.432 134.382C207.612 134.962 207.756 135.551 207.862 136.147C207.862 136.147 208.188 139.986 208.618 141.126C208.984 142.097 209.275 144.493 209.354 145.187C209.28 145.206 209.212 145.243 209.158 145.295C209.105 145.348 209.067 145.413 209.05 145.485C208.834 146.106 207.432 147.051 207.432 147.051C207.003 147.255 206.597 147.503 206.223 147.789C205.782 148.168 205.798 148.51 207.755 148.296C211.533 147.881 212.179 146.73 212.179 146.73C212.179 146.73 212.119 146.537 212.028 146.286C211.913 145.896 211.746 145.522 211.533 145.172C211.478 145.122 211.423 145.206 211.358 145.336C211.073 143.671 210.986 141.98 211.1 140.296C211.1 140.296 211.207 138.532 210.668 137.287C210.548 136.635 210.548 135.969 210.668 135.317C210.884 134.487 209.806 130.439 209.806 130.439L209.187 127.458C209.271 127.56 209.33 127.679 209.359 127.806L209.376 127.866L209.392 127.952C209.398 127.982 209.414 128.01 209.436 128.033C209.858 129.703 211.013 134.33 211.013 135.009C211.013 135.839 212.091 137.914 212.091 137.914C212.091 137.914 212.521 141.338 213.276 142.684C213.851 143.71 213.865 145.213 213.837 145.876C213.837 145.876 213.709 146.73 213.493 146.936C213.321 147.14 213.183 147.368 213.085 147.612L213.06 147.661C213.06 147.661 212.737 148.285 212.953 148.39C213.776 148.697 214.666 148.804 215.543 148.7C215.543 148.7 215.975 148.178 215.975 147.975C215.966 147.85 215.95 147.727 215.926 147.604C215.847 147.113 215.699 146.341 215.696 146.333C215.786 145.999 215.422 145.07 215.422 145.07L215.313 142.165C215.513 140.198 215.255 138.214 214.557 136.353C214.557 136.353 214.01 134.487 214.128 133.967C214.245 133.448 213.911 127.949 213.911 127.949L213.879 127.871C213.849 127.482 213.86 127.091 213.911 126.704C214.018 125.459 213.588 122.865 213.479 122.763C213.39 122.484 213.338 122.196 213.326 121.905C213.35 121.688 213.424 121.054 213.525 120.266C214.59 120.231 215.651 120.144 216.706 120.005C216.808 120.005 216.906 119.967 216.98 119.9C217.023 119.838 217.045 119.764 217.043 119.689C217.169 118.126 216.569 116.607 215.948 115.161ZM213.777 118.452C213.89 117.708 214.01 116.988 214.13 116.453L214.147 116.5C214.354 117.037 214.528 117.586 214.667 118.144C214.38 118.269 214.082 118.372 213.777 118.452Z" fill="url(#paint0_linear)"/>
<path d="M205.393 126.853C205.393 126.853 206.039 132.394 207.438 134.547C207.618 135.119 207.761 135.701 207.868 136.29C207.868 136.29 208.191 140.085 208.62 141.213C209.05 142.34 209.373 145.42 209.373 145.42C209.373 145.42 210.879 147.059 211.418 145.728C211.079 143.969 210.971 142.177 211.095 140.393C211.095 140.393 211.202 138.65 210.665 137.418C210.545 136.774 210.545 136.115 210.665 135.471C210.879 134.649 209.803 130.65 209.803 130.65L208.943 126.649L205.393 126.853Z" fill="#BE6F72"/>
<path d="M212.171 146.753C212.171 146.753 211.525 147.881 207.761 148.29C205.807 148.502 205.793 148.165 206.234 147.789C206.607 147.506 207.011 147.261 207.438 147.059C207.438 147.059 208.837 146.137 209.05 145.521C209.264 144.906 210.019 145.42 210.019 145.42C211.095 146.957 211.311 145.007 211.525 145.213C211.739 145.558 211.905 145.927 212.02 146.312C212.11 146.56 212.171 146.753 212.171 146.753Z" fill="#FF6F61"/>
<path opacity="0.1" d="M212.171 146.753C212.171 146.753 211.525 147.881 207.761 148.291C205.807 148.502 205.793 148.165 206.234 147.789C206.54 147.975 207.159 148.05 208.404 147.573C210.197 146.873 211.497 146.469 212.02 146.312C212.11 146.56 212.171 146.753 212.171 146.753Z" fill="black"/>
<path opacity="0.1" d="M211.095 140.393C211.095 140.393 211.202 138.65 210.665 137.418C210.545 136.774 210.545 136.115 210.665 135.471C210.879 134.649 209.803 130.65 209.803 130.65L208.943 126.649L208.199 126.691L209.05 130.65C209.05 130.65 210.126 134.649 209.912 135.471C209.792 136.115 209.792 136.774 209.912 137.418C210.46 138.65 210.342 140.393 210.342 140.393C210.218 142.177 210.326 143.969 210.665 145.728C210.607 145.895 210.498 146.042 210.353 146.15C210.753 146.323 211.174 146.315 211.418 145.728C211.079 143.969 210.971 142.177 211.095 140.393Z" fill="black"/>
<path d="M210.394 104.34C209.676 104.339 208.973 104.53 208.363 104.891C207.558 104.714 206.714 104.802 205.969 105.14C205.223 105.479 204.62 106.049 204.257 106.757C203.806 107.164 203.449 107.657 203.209 108.203C202.969 108.75 202.851 109.338 202.864 109.93C202.864 112.112 204.405 113.879 206.305 113.879C207.673 113.879 208.872 112.95 209.422 111.606C209.739 111.686 210.064 111.726 210.391 111.726C211.419 111.726 212.404 111.337 213.13 110.644C213.857 109.952 214.265 109.013 214.265 108.033C214.265 107.054 213.857 106.114 213.13 105.422C212.404 104.729 211.419 104.34 210.391 104.34H210.394Z" fill="#3F3D56"/>
<path d="M213.569 127.367L213.892 128.187C213.892 128.187 214.215 133.623 214.106 134.137C213.996 134.651 214.538 136.486 214.538 136.486C215.234 138.323 215.491 140.284 215.291 142.228L215.398 145.099C215.398 145.099 215.828 146.226 215.614 146.432C215.401 146.639 213.777 146.25 213.777 146.25C213.777 146.25 213.994 144.097 213.23 142.763C212.466 141.429 212.047 138.044 212.047 138.044C212.047 138.044 210.972 135.993 210.972 135.173C210.972 134.354 209.25 127.686 209.25 127.686L213.569 127.367Z" fill="#BE6F72"/>
<path d="M205.177 127.265C205.177 127.265 205.286 123.572 205.724 122.445C205.947 121.918 206.108 121.369 206.203 120.808C206.203 120.808 212.715 121.931 213.254 121.521C213.254 121.521 213.361 122.956 213.471 123.058C213.58 123.16 214.018 125.725 213.9 126.957C213.783 128.189 213.9 128.186 213.9 128.186C213.9 128.186 209.488 128.802 209.381 128.186C209.275 127.571 208.952 127.573 208.952 127.573C208.952 127.573 204.963 127.458 205.177 127.265Z" fill="#3F3D56"/>
<g opacity="0.1">
<path opacity="0.1" d="M208.727 127.265C208.727 127.265 206.006 127.195 205.185 127.054C205.185 127.187 205.185 127.265 205.185 127.265C204.972 127.469 208.952 127.573 208.952 127.573C209.006 127.578 209.057 127.598 209.099 127.631C208.954 127.265 208.727 127.265 208.727 127.265Z" fill="black"/>
<path opacity="0.1" d="M213.463 123.058C213.353 122.956 213.246 121.521 213.246 121.521C213.19 121.554 213.128 121.575 213.063 121.584C213.101 122.017 213.175 122.682 213.246 122.75C213.317 122.818 213.794 125.418 213.676 126.649C213.558 127.881 213.676 127.879 213.676 127.879C213.676 127.879 210.186 128.367 209.34 128.04C209.34 128.085 209.365 128.134 209.373 128.187C209.48 128.803 213.892 128.187 213.892 128.187C213.892 128.187 213.783 128.187 213.892 126.957C214.002 125.728 213.569 123.163 213.463 123.058Z" fill="black"/>
</g>
<path d="M209.918 110.802C210.011 111 210.151 111.173 210.329 111.308C210.443 111.389 210.575 111.444 210.715 111.468C210.474 111.601 210.211 111.7 209.97 111.833C209.591 112.076 209.226 112.337 208.875 112.616C208.517 112.891 208.078 113.053 207.619 113.081C207.78 112.874 207.881 112.63 207.912 112.374C207.942 112.117 207.902 111.858 207.794 111.622C207.695 111.467 207.63 111.295 207.602 111.115C207.602 110.82 207.876 110.593 208.131 110.437C208.336 110.304 208.547 110.176 208.76 110.048C208.927 109.949 209.179 109.74 209.39 109.748C209.6 109.756 209.625 109.933 209.663 110.116C209.718 110.354 209.803 110.584 209.918 110.802Z" fill="#BE6F72"/>
<path opacity="0.1" d="M209.918 110.802C210.011 111 210.151 111.173 210.329 111.308C210.443 111.389 210.575 111.444 210.715 111.468C210.474 111.601 210.211 111.7 209.97 111.833C209.591 112.076 209.226 112.337 208.875 112.616C208.517 112.891 208.078 113.053 207.619 113.081C207.78 112.874 207.881 112.63 207.912 112.374C207.942 112.117 207.902 111.858 207.794 111.622C207.695 111.467 207.63 111.295 207.602 111.115C207.602 110.82 207.876 110.593 208.131 110.437C208.336 110.304 208.547 110.176 208.76 110.048C208.927 109.949 209.179 109.74 209.39 109.748C209.6 109.756 209.625 109.933 209.663 110.116C209.718 110.354 209.803 110.584 209.918 110.802Z" fill="black"/>
<path d="M212.439 116.855C213.805 116.855 214.913 115.798 214.913 114.495C214.913 113.192 213.805 112.136 212.439 112.136C211.072 112.136 209.964 113.192 209.964 114.495C209.964 115.798 211.072 116.855 212.439 116.855Z" fill="#BE6F72"/>
<path d="M215.934 147.983C215.934 148.189 215.505 148.7 215.505 148.7C214.631 148.803 213.744 148.697 212.923 148.392C212.707 148.291 213.03 147.675 213.03 147.675L213.055 147.625C213.153 147.383 213.291 147.158 213.463 146.957C213.676 146.753 213.805 145.913 213.805 145.913C214.473 144.869 215.658 146.364 215.658 146.364C215.658 146.364 215.808 147.147 215.888 147.622C215.915 147.792 215.934 147.93 215.934 147.983Z" fill="#FF6F61"/>
<path opacity="0.1" d="M215.934 147.983C215.934 148.189 215.505 148.7 215.505 148.7C214.631 148.803 213.744 148.697 212.923 148.392C212.707 148.291 213.03 147.675 213.03 147.675L213.055 147.625C213.788 147.95 214.59 148.107 215.398 148.084L215.888 147.617C215.915 147.792 215.934 147.93 215.934 147.983Z" fill="black"/>
<path d="M207.49 111.877C208.826 111.877 209.91 110.845 209.91 109.57C209.91 108.296 208.826 107.263 207.49 107.263C206.154 107.263 205.07 108.296 205.07 109.57C205.07 110.845 206.154 111.877 207.49 111.877Z" fill="#BE6F72"/>
<path d="M205.538 114.185C205.007 114.668 204.92 115.432 204.865 116.129L204.783 117.15C204.753 117.424 204.747 117.701 204.764 117.977C204.764 118.147 204.808 118.319 204.824 118.499C204.84 118.679 204.846 118.906 204.849 119.112V120.621C204.823 120.932 204.883 121.244 205.024 121.526C205.099 121.663 205.225 121.767 205.377 121.82C205.529 121.872 205.696 121.868 205.845 121.808C206.015 121.683 206.135 121.506 206.184 121.307C206.451 120.695 206.635 120.053 206.732 119.397C206.754 119.17 206.756 118.943 206.778 118.716C206.8 118.488 206.841 118.251 206.877 118.021C207.03 117.061 207.099 116.09 207.167 115.122C207.186 114.835 207.457 113.705 207.063 113.579C206.871 113.519 206.474 113.707 206.291 113.77C206.013 113.858 205.757 114 205.538 114.185Z" fill="#BE6F72"/>
<path opacity="0.1" d="M205.538 114.185C205.007 114.668 204.92 115.432 204.865 116.129L204.783 117.15C204.753 117.424 204.747 117.701 204.764 117.977C204.764 118.147 204.808 118.319 204.824 118.499C204.84 118.679 204.846 118.906 204.849 119.112V120.621C204.823 120.932 204.883 121.244 205.024 121.526C205.099 121.663 205.225 121.767 205.377 121.82C205.529 121.872 205.696 121.868 205.845 121.808C206.015 121.683 206.135 121.506 206.184 121.307C206.451 120.695 206.635 120.053 206.732 119.397C206.754 119.17 206.756 118.943 206.778 118.716C206.8 118.488 206.841 118.251 206.877 118.021C207.03 117.061 207.099 116.09 207.167 115.122C207.186 114.835 207.457 113.705 207.063 113.579C206.871 113.519 206.474 113.707 206.291 113.77C206.013 113.858 205.757 114 205.538 114.185Z" fill="black"/>
<path d="M210.556 111.058C210.556 111.058 208.727 112.392 207.651 112.7C207.651 112.7 207.014 113.394 206.904 113.561C206.795 113.728 206.576 115.571 206.357 115.983C206.138 116.395 205.604 117.317 206.357 118.238C206.357 118.238 206.57 119.162 206.463 119.47C206.357 119.778 205.965 120.905 206.321 120.957C206.677 121.01 207.755 121.725 208.722 121.521C209.688 121.318 213.296 122.304 213.296 122.304C213.296 122.304 213.892 117.019 214.325 116.085L213.356 115.777C213.356 115.777 210.668 114.24 212.28 111.88C212.277 111.88 210.766 111.572 210.556 111.058Z" fill="#FF6F61"/>
<path d="M203.88 117.236L206.102 118.736C206.13 118.756 206.164 118.767 206.199 118.767C206.234 118.767 206.268 118.756 206.297 118.736L206.899 118.306C206.917 118.29 206.932 118.272 206.942 118.251C206.952 118.229 206.958 118.206 206.958 118.183C206.958 118.16 206.952 118.137 206.942 118.116C206.932 118.094 206.917 118.076 206.899 118.06L205.188 116.612C205.166 116.593 205.138 116.58 205.109 116.574C205.08 116.568 205.049 116.571 205.021 116.581L203.923 116.956C203.894 116.966 203.869 116.983 203.849 117.005C203.83 117.027 203.817 117.055 203.813 117.083C203.808 117.112 203.812 117.142 203.824 117.168C203.836 117.195 203.855 117.219 203.88 117.236Z" fill="#3F3D56"/>
<path d="M204.627 121.756C204.47 121.236 204.391 120.697 204.394 120.156L204.361 119.433C204.328 119.153 204.355 118.869 204.441 118.598C204.525 118.413 204.652 118.247 204.811 118.114C204.971 117.981 205.159 117.883 205.363 117.828C205.772 117.72 206.199 117.691 206.62 117.742C206.676 117.742 206.732 117.757 206.781 117.784C206.824 117.822 206.854 117.871 206.869 117.925C206.931 118.04 206.967 118.167 206.976 118.297C206.984 118.427 206.965 118.557 206.918 118.679C206.854 118.778 206.768 118.863 206.666 118.927C206.368 119.131 206.02 119.266 205.738 119.488C205.681 119.525 205.637 119.578 205.612 119.639C205.599 119.693 205.599 119.75 205.612 119.804C205.647 119.947 205.695 120.088 205.755 120.224C205.779 120.292 205.821 120.354 205.878 120.402C205.93 120.443 205.998 120.459 206.053 120.498C206.171 120.589 206.417 120.71 206.403 120.853C206.362 121.375 206.034 121.96 205.905 122.476C205.659 123.486 204.786 122.197 204.627 121.756Z" fill="#BE6F72"/>
<g opacity="0.1">
<path opacity="0.1" d="M208.084 121.521H208.024C208.256 121.564 208.495 121.564 208.727 121.521H208.796C208.56 121.488 208.32 121.488 208.084 121.521Z" fill="black"/>
<path opacity="0.1" d="M213.731 115.931C213.345 116.758 212.775 121.239 212.674 122.129C213.052 122.223 213.301 122.291 213.301 122.291C213.301 122.291 213.892 117.019 214.325 116.085L213.731 115.931Z" fill="black"/>
</g>
<path d="M212.524 114.568C212.544 114.671 212.586 114.769 212.646 114.857C212.707 114.944 212.785 115.019 212.877 115.077C213.105 115.26 213.315 115.462 213.504 115.683C213.774 116.045 213.984 116.446 214.125 116.87C214.33 117.401 214.503 117.943 214.642 118.493C213.274 119.099 211.719 119.07 210.263 119.47C209.636 119.627 209.067 119.948 208.62 120.396C208.398 120.621 208.228 120.89 208.124 121.183C208.02 121.476 207.983 121.787 208.016 122.095C208.018 122.131 208.029 122.166 208.048 122.197C208.072 122.222 208.102 122.242 208.135 122.255C208.168 122.268 208.204 122.273 208.24 122.27C208.604 122.269 208.957 122.154 209.245 121.941C209.529 121.729 209.787 121.488 210.014 121.221C210.155 121.046 210.344 120.912 210.561 120.835C211.352 120.605 212.204 120.618 213.025 120.605C214.253 120.582 215.479 120.49 216.695 120.328C216.74 120.333 216.785 120.329 216.827 120.315C216.869 120.301 216.908 120.278 216.939 120.248C216.971 120.217 216.995 120.181 217.01 120.141C217.024 120.1 217.029 120.057 217.024 120.015C217.144 118.475 216.545 116.972 215.929 115.544C215.683 114.972 215.429 114.402 215.168 113.835C214.953 113.281 214.638 112.767 214.237 112.316C214.085 112.152 213.899 112.02 213.69 111.93C213.454 111.849 213.207 111.805 212.956 111.799C212.558 111.748 212.155 111.741 211.755 111.778C211.691 111.97 211.652 112.169 211.64 112.371C211.662 113.075 211.985 113.736 212.302 114.372C212.343 114.469 212.461 114.474 212.524 114.568Z" fill="#BE6F72"/>
<path opacity="0.1" d="M208.141 115.889C207.956 116.191 207.862 116.536 207.868 116.886C207.868 117.024 207.891 117.161 207.936 117.293C208.011 117.478 208.128 117.644 208.279 117.779C208.43 117.915 208.612 118.016 208.809 118.076" stroke="black" stroke-miterlimit="10"/>
<path d="M209.535 107.316C209.4 107.315 209.266 107.335 209.138 107.376C208.779 106.854 207.936 106.493 206.948 106.493C205.64 106.493 204.58 107.138 204.58 107.931C204.58 108.725 205.64 109.367 206.948 109.367C207.438 109.372 207.923 109.274 208.369 109.08C208.469 109.278 208.623 109.446 208.815 109.568C209.006 109.69 209.229 109.76 209.459 109.772C209.689 109.784 209.918 109.737 210.122 109.636C210.327 109.535 210.499 109.384 210.622 109.198C210.744 109.012 210.812 108.798 210.818 108.578C210.824 108.359 210.769 108.142 210.657 107.95C210.546 107.758 210.382 107.597 210.184 107.486C209.986 107.374 209.76 107.316 209.529 107.316H209.535Z" fill="#3F3D56"/>
<path opacity="0.1" d="M209.641 109.469C209.399 109.469 209.161 109.403 208.956 109.28C208.75 109.157 208.586 108.981 208.481 108.772C208.035 108.966 207.55 109.064 207.06 109.059C205.755 109.059 204.695 108.417 204.695 107.624C204.691 107.576 204.691 107.528 204.695 107.48C204.617 107.619 204.576 107.774 204.575 107.931C204.575 108.714 205.634 109.367 206.943 109.367C207.432 109.372 207.918 109.274 208.363 109.08C208.481 109.313 208.673 109.504 208.912 109.627C209.151 109.75 209.424 109.798 209.693 109.764C209.962 109.731 210.213 109.617 210.41 109.439C210.607 109.261 210.741 109.029 210.791 108.774C210.687 108.981 210.524 109.156 210.321 109.279C210.117 109.402 209.882 109.467 209.641 109.469Z" fill="black"/>
<path opacity="0.1" d="M204.26 107.362C204.622 106.655 205.226 106.085 205.971 105.746C206.717 105.407 207.561 105.319 208.366 105.496C208.929 105.165 209.572 104.977 210.233 104.949C210.895 104.922 211.552 105.057 212.143 105.342C212.734 105.626 213.238 106.05 213.608 106.573C213.978 107.097 214.202 107.702 214.256 108.331C214.256 108.229 214.256 108.127 214.256 108.023C214.255 107.366 214.07 106.722 213.72 106.157C213.371 105.591 212.869 105.125 212.268 104.806C211.666 104.487 210.986 104.326 210.298 104.341C209.61 104.356 208.938 104.546 208.352 104.891C207.547 104.714 206.703 104.802 205.958 105.141C205.212 105.479 204.609 106.049 204.246 106.757C203.795 107.164 203.438 107.657 203.198 108.203C202.958 108.75 202.84 109.338 202.853 109.931C202.853 110.035 202.853 110.137 202.853 110.239C202.907 109.141 203.412 108.107 204.26 107.362Z" fill="black"/>
<path d="M228.939 108.145C229.653 106.885 228.843 105.337 227.91 104.212C226.976 103.088 225.843 101.918 225.868 100.483C225.901 98.4237 228.194 97.2075 230.028 96.114C231.388 95.3016 232.641 94.3379 233.762 93.2431C234.233 92.8236 234.622 92.3279 234.912 91.779C235.289 90.9725 235.278 90.0565 235.256 89.1691C235.176 86.2286 235.024 83.2917 234.799 80.3582" stroke="#3F3D56" stroke-width="4" stroke-miterlimit="10"/>
<path d="M238.281 80.2015C238.255 79.6638 238.087 79.1409 237.794 78.6812C237.5 78.2214 237.089 77.8396 236.6 77.5708L235.845 78.9931L235.867 77.2706C235.508 77.1684 235.133 77.1251 234.758 77.1427C234.092 77.1723 233.451 77.3895 232.915 77.7668C232.378 78.1441 231.971 78.6646 231.745 79.2624C231.519 79.8601 231.484 80.5084 231.645 81.1252C231.805 81.742 232.154 82.2996 232.646 82.7274C233.139 83.1553 233.754 83.4342 234.413 83.5289C235.072 83.6236 235.746 83.5298 236.349 83.2594C236.952 82.9891 237.457 82.5542 237.801 82.0099C238.145 81.4656 238.312 80.8363 238.281 80.2015Z" fill="#066660"/>
<path d="M232.273 101.95C231.919 102.605 231.34 103.125 230.633 103.421C229.925 103.718 229.132 103.774 228.387 103.579C227.641 103.385 226.988 102.952 226.538 102.353C226.087 101.754 225.867 101.026 225.913 100.29C225.958 99.5541 226.268 98.8558 226.79 98.312C227.312 97.7683 228.014 97.412 228.778 97.3031C229.543 97.1942 230.323 97.3392 230.989 97.7138C231.654 98.0884 232.165 98.6698 232.434 99.3606L230.329 100.994L232.645 100.472C232.647 100.986 232.52 101.493 232.273 101.95Z" fill="#066660"/>
<path d="M230.609 95.7093C229.781 95.7473 228.969 95.4934 228.325 94.9962C227.682 94.499 227.253 93.7933 227.121 93.0138C226.988 92.2343 227.162 91.4356 227.608 90.7703C228.054 90.1049 228.741 89.6194 229.538 89.4065L229.522 90.7297L230.286 89.2917C231.178 89.2527 232.051 89.5533 232.712 90.1273C233.372 90.7013 233.767 91.5019 233.808 92.3531C233.829 92.7745 233.763 93.1958 233.613 93.5928C233.463 93.9897 233.233 94.3547 232.935 94.6666C232.637 94.9786 232.277 95.2315 231.877 95.4108C231.476 95.5902 231.042 95.6925 230.6 95.712L230.609 95.7093Z" fill="#066660"/>
<path d="M238.787 90.521C238.265 90.5463 237.744 90.4554 237.265 90.2554C236.786 90.0554 236.362 89.7517 236.027 89.3685C235.692 88.9854 235.456 88.5331 235.336 88.0477C235.216 87.5622 235.217 87.0569 235.337 86.5716C235.458 86.0863 235.695 85.6345 236.031 85.2519C236.366 84.8693 236.791 84.5663 237.27 84.3671C237.75 84.1679 238.271 84.0778 238.793 84.1041C239.316 84.1303 239.824 84.2721 240.279 84.5183L239.683 86.0842L240.909 84.9619C241.236 85.2447 241.5 85.5863 241.688 85.967C241.876 86.3477 241.983 86.76 242.004 87.1803C242.02 87.4776 241.992 87.7756 241.919 88.0651C241.747 88.743 241.349 89.3493 240.784 89.7924C240.219 90.2354 239.518 90.4911 238.787 90.521Z" fill="#066660"/>
<path opacity="0.1" d="M237.829 81.0575C237.052 81.1411 236.294 81.3707 235.514 81.4177C234.734 81.4647 233.871 81.2846 233.381 80.7052C233.152 80.3694 232.945 80.0208 232.76 79.6613C232.546 79.3452 232.255 79.0836 231.911 78.8992C231.693 79.3065 231.568 79.7535 231.546 80.2105C231.523 80.6674 231.603 81.1237 231.78 81.5487C231.958 81.9738 232.228 82.3579 232.574 82.6753C232.919 82.9927 233.332 83.2361 233.784 83.3892C234.236 83.5423 234.717 83.6016 235.195 83.5632C235.673 83.5247 236.137 83.3893 236.556 83.1661C236.975 82.9429 237.338 82.637 237.623 82.2688C237.908 81.9007 238.107 81.4788 238.207 81.0314C238.081 81.0367 237.955 81.0445 237.829 81.0575Z" fill="black"/>
<path opacity="0.1" d="M238.787 90.5209C238.207 90.5464 237.629 90.4283 237.11 90.1781C236.592 89.9278 236.149 89.554 235.827 89.0929C235.504 88.6317 235.312 88.0989 235.269 87.5461C235.227 86.9933 235.334 86.4394 235.582 85.938C235.85 86.109 236.081 86.3279 236.261 86.5826C236.461 86.9491 236.684 87.3039 236.929 87.6448C237.452 88.2347 238.349 88.4278 239.162 88.3913C239.975 88.3547 240.761 88.1303 241.571 88.065C241.683 88.065 241.798 88.0468 241.911 88.0442C241.744 88.7247 241.348 89.3348 240.785 89.7817C240.221 90.2287 239.52 90.4882 238.787 90.5209Z" fill="black"/>
<path opacity="0.1" d="M230.609 95.7093C230.033 95.7362 229.459 95.6216 228.943 95.3764C228.427 95.1313 227.985 94.7639 227.661 94.3094C227.336 93.8548 227.14 93.3285 227.09 92.7807C227.04 92.233 227.138 91.6822 227.376 91.1812C227.652 91.3564 227.893 91.5774 228.088 91.8336C228.361 92.186 228.512 92.5931 228.818 92.9167C229.388 93.5222 230.343 93.7336 231.205 93.7154C232.068 93.6971 232.848 93.5013 233.669 93.4413C233.466 94.0737 233.063 94.631 232.515 95.0369C231.967 95.4428 231.301 95.6776 230.609 95.7093Z" fill="black"/>
<path opacity="0.1" d="M232.273 101.95C231.871 102.667 231.199 103.212 230.393 103.475C229.587 103.739 228.705 103.702 227.927 103.371C227.148 103.04 226.529 102.441 226.196 101.693C225.862 100.945 225.838 100.104 226.128 99.3398C226.406 99.5129 226.655 99.7249 226.867 99.9688C227.19 100.342 227.401 100.752 227.77 101.112C228.46 101.757 229.571 102.02 230.562 102.046C231.134 102.046 231.705 102.013 232.273 101.95Z" fill="black"/>
<path d="M272.461 147.816C273.175 146.555 272.365 145.007 271.432 143.883C270.498 142.758 269.365 141.588 269.39 140.153C269.422 138.094 271.716 136.878 273.55 135.784C274.91 134.972 276.163 134.008 277.284 132.913C277.755 132.494 278.144 131.998 278.433 131.449C278.811 130.643 278.8 129.727 278.778 128.839C278.7 125.899 278.547 122.962 278.321 120.028" stroke="#3F3D56" stroke-width="4" stroke-miterlimit="10"/>
<path d="M281.803 119.872C281.777 119.334 281.609 118.811 281.315 118.351C281.022 117.892 280.611 117.51 280.122 117.241L279.367 118.663L279.389 116.941C279.034 116.84 278.664 116.797 278.294 116.813C277.628 116.842 276.986 117.06 276.45 117.437C275.914 117.814 275.507 118.335 275.281 118.932C275.055 119.53 275.02 120.179 275.18 120.795C275.341 121.412 275.689 121.97 276.182 122.398C276.675 122.825 277.29 123.104 277.949 123.199C278.608 123.294 279.281 123.2 279.884 122.93C280.488 122.659 280.993 122.224 281.337 121.68C281.681 121.136 281.848 120.506 281.817 119.872H281.803Z" fill="#066660"/>
<path d="M275.795 141.62C275.441 142.275 274.862 142.795 274.155 143.092C273.447 143.388 272.654 143.444 271.909 143.25C271.163 143.055 270.51 142.622 270.06 142.023C269.609 141.424 269.389 140.696 269.435 139.96C269.48 139.224 269.79 138.526 270.312 137.982C270.834 137.438 271.536 137.082 272.3 136.973C273.065 136.864 273.845 137.009 274.511 137.384C275.176 137.759 275.687 138.34 275.956 139.031L273.851 140.665L276.167 140.143C276.169 140.656 276.042 141.163 275.795 141.62Z" fill="#066660"/>
<path d="M274.13 135.38C273.303 135.418 272.49 135.164 271.847 134.666C271.204 134.169 270.775 133.464 270.642 132.684C270.51 131.905 270.683 131.106 271.129 130.44C271.575 129.775 272.263 129.29 273.06 129.077L273.044 130.4L273.808 128.962C274.7 128.923 275.573 129.223 276.233 129.797C276.894 130.371 277.288 131.172 277.33 132.023C277.351 132.445 277.285 132.866 277.135 133.263C276.985 133.66 276.755 134.025 276.457 134.337C276.159 134.649 275.799 134.902 275.399 135.081C274.998 135.26 274.564 135.363 274.122 135.382L274.13 135.38Z" fill="#066660"/>
<path d="M282.309 130.191C281.787 130.216 281.266 130.126 280.786 129.926C280.307 129.725 279.884 129.422 279.549 129.039C279.214 128.656 278.978 128.203 278.858 127.718C278.738 127.232 278.739 126.727 278.859 126.242C278.98 125.756 279.217 125.305 279.553 124.922C279.888 124.539 280.312 124.236 280.792 124.037C281.271 123.838 281.793 123.748 282.315 123.774C282.838 123.8 283.346 123.942 283.801 124.188L283.204 125.754L284.431 124.632C284.757 124.915 285.022 125.256 285.21 125.637C285.398 126.018 285.505 126.43 285.526 126.85C285.542 127.148 285.513 127.446 285.441 127.735C285.269 128.413 284.871 129.019 284.306 129.462C283.741 129.906 283.04 130.161 282.309 130.191Z" fill="#066660"/>
<path opacity="0.1" d="M281.351 120.728C280.574 120.811 279.816 121.041 279.036 121.088C278.255 121.135 277.393 120.955 276.903 120.375C276.674 120.04 276.467 119.691 276.282 119.331C276.068 119.015 275.777 118.754 275.433 118.569C275.215 118.977 275.09 119.424 275.068 119.881C275.045 120.338 275.125 120.794 275.302 121.219C275.48 121.644 275.75 122.028 276.095 122.345C276.441 122.663 276.854 122.906 277.306 123.059C277.758 123.212 278.239 123.272 278.717 123.233C279.195 123.195 279.659 123.059 280.078 122.836C280.496 122.613 280.86 122.307 281.145 121.939C281.43 121.571 281.629 121.149 281.729 120.702C281.603 120.707 281.477 120.715 281.351 120.728Z" fill="black"/>
<path opacity="0.1" d="M282.309 130.191C281.729 130.217 281.151 130.098 280.632 129.848C280.113 129.598 279.671 129.224 279.349 128.763C279.026 128.302 278.834 127.769 278.791 127.216C278.748 126.663 278.856 126.11 279.104 125.608C279.372 125.779 279.602 125.998 279.783 126.253C279.983 126.619 280.206 126.974 280.451 127.315C280.974 127.905 281.871 128.098 282.684 128.061C283.497 128.025 284.283 127.8 285.093 127.735C285.205 127.735 285.32 127.717 285.432 127.714C285.265 128.395 284.87 129.005 284.306 129.452C283.743 129.899 283.042 130.158 282.309 130.191Z" fill="black"/>
<path opacity="0.1" d="M274.13 135.379C273.554 135.406 272.981 135.292 272.465 135.047C271.949 134.801 271.507 134.434 271.183 133.979C270.858 133.525 270.662 132.999 270.612 132.451C270.562 131.903 270.66 131.352 270.898 130.851C271.174 131.027 271.415 131.248 271.609 131.504C271.883 131.856 272.034 132.263 272.34 132.587C272.91 133.192 273.865 133.404 274.727 133.385C275.589 133.367 276.369 133.171 277.191 133.111C276.987 133.744 276.584 134.301 276.037 134.707C275.489 135.113 274.823 135.348 274.13 135.379Z" fill="black"/>
<path opacity="0.1" d="M275.795 141.62C275.393 142.337 274.721 142.882 273.915 143.146C273.108 143.409 272.227 143.372 271.448 143.041C270.67 142.711 270.051 142.111 269.718 141.363C269.384 140.615 269.36 139.774 269.65 139.01C269.928 139.183 270.177 139.395 270.389 139.639C270.712 140.012 270.936 140.422 271.292 140.782C271.982 141.427 273.093 141.69 274.084 141.716C274.656 141.716 275.227 141.684 275.795 141.62Z" fill="black"/>
<path d="M130.839 110.993C130.843 110.592 130.748 110.197 130.562 109.838C130.376 109.479 130.105 109.167 129.769 108.926C129.765 108.218 129.499 107.535 129.017 106.996C128.536 106.457 127.871 106.098 127.139 105.982C127.026 105.467 126.773 104.991 126.405 104.599C126.037 104.207 125.568 103.915 125.045 103.75C124.918 103.713 124.788 103.684 124.656 103.664H124.618H124.549H124.494H124.434H124.36H124.193C123.466 103.68 122.768 103.941 122.223 104.401C121.678 104.86 121.321 105.489 121.215 106.175C120.255 105.964 119.376 106.238 119.214 106.817C119.174 106.971 119.183 107.133 119.242 107.282C119.406 107.73 119.94 108.161 120.654 108.373L120.747 108.399L120.887 108.433H120.917C120.764 108.742 120.686 109.08 120.687 109.422C120.685 109.841 120.804 110.253 121.031 110.612C121.259 110.972 121.586 111.264 121.976 111.457L121.913 111.494C121.824 111.571 121.753 111.665 121.705 111.771C121.532 112.062 121.397 112.372 121.303 112.694C121.234 112.971 121.224 113.258 121.139 113.532C120.98 114.036 120.575 114.461 120.528 114.986C120.506 115.221 120.547 115.508 120.372 115.659C120.329 115.695 120.282 115.726 120.233 115.753C120.111 115.835 120.008 115.939 119.929 116.059C119.876 116.167 119.804 116.266 119.715 116.351C119.557 116.463 119.296 116.453 119.22 116.628C119.143 116.802 119.343 117.009 119.296 117.199C119.25 117.39 119.08 117.426 118.957 117.533C118.814 117.68 118.713 117.86 118.664 118.055C118.405 118.102 118.138 118.094 117.883 118.032C117.628 117.97 117.39 117.855 117.186 117.695C117.256 117.863 117.307 118.038 117.339 118.217C117.101 118.044 116.831 117.914 116.543 117.836C116.219 117.695 115.929 117.491 115.694 117.236L116.149 117.176L114.142 114.255L113.548 114.138L114.079 115.111C114.035 115.13 113.996 115.159 113.964 115.195C113.933 115.23 113.911 115.272 113.899 115.317C113.87 115.426 113.864 115.538 113.88 115.649C113.907 115.912 113.952 116.174 114.016 116.432L114.17 117.116C114.183 117.178 114.2 117.243 114.219 117.306C114.019 117.297 113.818 117.318 113.625 117.369C113.227 117.228 112.812 117.134 112.39 117.09C112.3 117.072 112.207 117.072 112.117 117.09C112.014 117.136 111.925 117.205 111.857 117.29C111.511 117.673 111.204 118.085 110.94 118.522C109.845 120.313 108.419 121.876 107.069 123.494C106.139 123.854 105.2 124.196 104.261 124.538L102.241 125.274C101.847 125.444 101.42 125.533 100.987 125.535C100.796 125.535 100.557 125.496 100.44 125.653C100.387 125.734 100.346 125.822 100.317 125.913L100.109 125.934C100.013 125.621 99.8475 125.331 99.6241 125.084C99.5748 125.092 99.5283 125.111 99.4887 125.14C99.4491 125.169 99.4176 125.207 99.3969 125.251C99.3476 125.337 99.3175 125.431 99.26 125.512C99.1533 125.663 98.9644 125.736 98.8303 125.864C98.6961 125.992 98.6113 126.19 98.4635 126.321C98.2619 126.463 98.0252 126.553 97.7764 126.582C97.4013 126.665 97.0396 126.796 96.7007 126.97C96.5767 127.045 96.4433 127.103 96.3038 127.145C96.1496 127.174 95.9916 127.179 95.8357 127.161L94.7682 127.085C94.6723 127.074 94.5751 127.078 94.4808 127.098C94.3736 127.14 94.283 127.213 94.2221 127.307C94.1611 127.401 94.1328 127.51 94.1414 127.62C94.1552 127.731 94.1923 127.838 94.2507 127.934C94.309 128.031 94.3873 128.115 94.4808 128.181C94.6655 128.311 94.8706 128.413 95.0885 128.482C96.0123 128.825 96.9645 129.093 97.9352 129.285V129.492C98.6143 129.818 99.3644 129.988 100.125 129.987C100.181 129.991 100.238 129.981 100.289 129.959C100.359 129.909 100.408 129.837 100.426 129.755C100.653 129.108 100.796 128.437 100.853 127.756C100.987 127.748 101.117 127.716 101.239 127.662C101.606 127.566 101.973 127.806 102.353 127.845C102.821 127.894 103.254 127.633 103.697 127.474L103.889 127.414C103.762 127.569 103.613 127.705 103.445 127.819C103.262 127.944 103.057 128.038 102.879 128.168C102.728 128.299 102.567 128.417 102.397 128.523C102.277 128.576 102.153 128.622 102.027 128.659C101.841 128.725 101.663 128.813 101.499 128.92C101.353 129.003 101.231 129.117 101.14 129.254C101.095 129.324 101.069 129.404 101.064 129.485C101.059 129.567 101.075 129.649 101.11 129.724C101.148 129.785 101.199 129.837 101.26 129.878C101.321 129.918 101.39 129.946 101.463 129.959C101.608 129.98 101.754 129.98 101.899 129.959C102.479 129.917 103.057 129.867 103.634 129.818C103.878 129.803 104.121 129.77 104.359 129.719C104.485 129.69 104.611 129.651 104.737 129.617C104.953 129.565 105.174 129.533 105.397 129.523C105.461 129.518 105.526 129.524 105.588 129.541C105.723 129.583 105.818 129.713 105.955 129.74C106.048 129.751 106.142 129.739 106.229 129.706C106.651 129.619 107.081 129.575 107.513 129.575C107.702 129.575 107.923 129.531 108.011 129.364C108.099 129.197 107.94 128.928 107.869 128.706C107.832 128.564 107.812 128.419 107.808 128.273C107.775 127.913 107.667 127.564 107.491 127.245C107.396 127.096 107.316 126.938 107.253 126.775C108.081 126.475 108.872 126.092 109.615 125.632C110.022 125.351 110.478 125.141 110.962 125.013C111.533 124.948 112.113 125.012 112.653 125.201C113.969 125.565 115.264 125.995 116.532 126.49C117.137 126.728 117.739 126.978 118.363 127.158C118.545 127.391 118.765 127.595 119.015 127.761C119.446 127.992 119.93 128.119 120.424 128.129C121.084 128.187 121.746 128.21 122.409 128.2C122.916 128.221 123.421 128.131 123.887 127.939C123.998 127.886 124.102 127.82 124.196 127.743C124.375 127.757 124.555 127.734 124.723 127.675C124.892 127.616 125.044 127.523 125.171 127.401C125.529 127.108 125.788 126.719 125.912 126.284C126.074 125.689 125.951 124.979 126.334 124.504C126.435 124.374 126.569 124.269 126.671 124.139C126.793 123.96 126.854 123.749 126.846 123.536C126.85 123.527 126.856 123.52 126.862 123.512C126.946 123.321 127.002 123.119 127.026 122.912C127.073 122.75 127.133 122.591 127.204 122.437C127.399 121.977 127.569 121.507 127.713 121.03C127.812 120.713 127.891 120.391 127.949 120.065C127.99 119.804 128.015 119.543 128.036 119.282C128.065 118.871 128.149 118.465 128.286 118.073C128.628 117.142 128.822 116.168 128.86 115.182V115.124C129.365 115.069 129.829 114.836 130.162 114.471C130.496 114.106 130.674 113.635 130.661 113.151C130.662 112.861 130.597 112.573 130.473 112.308C130.715 111.908 130.841 111.454 130.839 110.993ZM121.046 122.338C121.076 122.44 121.111 122.539 121.147 122.638C120.985 122.489 120.829 122.335 120.668 122.184C120.731 122.205 120.796 122.223 120.857 122.247C120.92 122.271 120.981 122.302 121.037 122.338H121.046ZM120.271 121.837C119.324 121.054 118.229 120.446 117.26 119.686C117.788 119.934 118.303 120.224 118.812 120.501C119.416 120.829 120.028 121.145 120.649 121.448C120.547 121.6 120.416 121.732 120.263 121.837H120.271ZM120.673 119.864L120.72 119.819C120.72 119.932 120.72 120.033 120.72 120.13L120.465 120.046C120.536 119.99 120.602 119.929 120.665 119.864H120.673ZM112.344 121.978C112.732 121.558 113.07 121.099 113.351 120.608C113.726 121.231 114.337 121.683 114.854 122.207C114.019 122.106 113.182 122.02 112.344 121.978Z" fill="url(#paint1_linear)"/>
<path d="M113.691 114.378L114.287 114.493L116.321 117.361L115.426 117.476L113.691 114.378Z" fill="#2F2E41"/>
<path d="M99.2217 126.013C99.3836 126.519 99.583 127.013 99.8184 127.492C100.492 127.357 101.155 127.176 101.803 126.952C101.675 126.771 101.537 126.597 101.39 126.43C101.229 126.264 101.039 126.125 100.828 126.02C100.604 125.972 100.371 125.972 100.147 126.02C99.8403 126.013 99.531 126.018 99.2217 126.013Z" fill="#FBBEBE"/>
<path d="M100.831 126.777C100.669 126.708 100.525 126.607 100.408 126.48C100.291 126.353 100.204 126.203 100.152 126.041C100.048 125.716 99.8717 125.416 99.6351 125.162C99.5853 125.168 99.538 125.187 99.4978 125.216C99.4575 125.244 99.4257 125.282 99.4052 125.326C99.3559 125.41 99.3258 125.504 99.2711 125.587C99.1616 125.736 98.97 125.809 98.8331 125.934C98.6962 126.06 98.6141 126.255 98.4663 126.383C98.2631 126.526 98.0245 126.616 97.7738 126.644C97.3929 126.726 97.0248 126.855 96.6789 127.028C96.5523 127.1 96.4173 127.158 96.2765 127.2C96.1205 127.222 95.9618 127.222 95.8057 127.2L94.7273 127.127C94.6366 127.113 94.5442 127.113 94.4535 127.127C94.3435 127.165 94.2499 127.237 94.1879 127.332C94.1258 127.426 94.0989 127.538 94.1114 127.649C94.1241 127.759 94.1612 127.865 94.2202 127.961C94.2792 128.056 94.3587 128.138 94.4535 128.202C94.6409 128.331 94.8476 128.431 95.0667 128.5C96.0057 128.837 96.9725 129.099 97.9572 129.283V129.486C98.643 129.807 99.3967 129.974 100.161 129.974C100.217 129.978 100.273 129.969 100.325 129.948C100.395 129.899 100.443 129.826 100.462 129.745C100.721 129.024 100.873 128.272 100.913 127.511C100.931 127.317 100.915 127.123 100.867 126.934C100.807 126.749 101.009 126.827 100.823 126.754" fill="#2F2E41"/>
<path d="M121.514 122.902C118.317 123.084 115.158 122.192 111.955 122.098C111.558 122.073 111.159 122.096 110.767 122.168C110.36 122.274 109.965 122.42 109.59 122.604C107.874 123.366 106.098 123.998 104.324 124.627L102.285 125.35C101.888 125.52 101.458 125.609 101.023 125.611C100.828 125.611 100.59 125.571 100.475 125.725C100.144 126.195 100.3 126.882 100.519 127.409C100.59 127.578 100.711 127.764 100.902 127.782C101.037 127.773 101.169 127.742 101.291 127.688C101.661 127.594 102.03 127.832 102.413 127.871C102.884 127.918 103.322 127.662 103.768 127.505C104.507 127.244 105.312 127.244 106.089 127.13C107.39 126.923 108.597 126.347 109.724 125.692C110.135 125.413 110.593 125.206 111.079 125.081C111.655 125.016 112.239 125.079 112.785 125.266C114.111 125.623 115.417 126.046 116.696 126.535C117.361 126.811 118.043 127.048 118.738 127.247C120.255 127.625 121.859 127.534 123.318 126.986C123.829 126.793 124.385 126.464 124.412 125.926C124.432 125.626 124.185 125.363 124.024 125.104C123.92 124.94 123.813 124.775 123.701 124.616C123.153 123.859 122.485 122.847 121.514 122.902Z" fill="#2F2E41"/>
<path opacity="0.1" d="M121.514 122.902C118.317 123.084 115.158 122.192 111.955 122.098C111.558 122.073 111.159 122.096 110.767 122.168C110.36 122.274 109.965 122.42 109.59 122.604C107.874 123.366 106.098 123.998 104.324 124.627L102.285 125.35C101.888 125.52 101.458 125.609 101.023 125.611C100.828 125.611 100.59 125.571 100.475 125.725C100.144 126.195 100.3 126.882 100.519 127.409C100.59 127.578 100.711 127.764 100.902 127.782C101.037 127.773 101.169 127.742 101.291 127.688C101.661 127.594 102.03 127.832 102.413 127.871C102.884 127.918 103.322 127.662 103.768 127.505C104.507 127.244 105.312 127.244 106.089 127.13C107.39 126.923 108.597 126.347 109.724 125.692C110.135 125.413 110.593 125.206 111.079 125.081C111.655 125.016 112.239 125.079 112.785 125.266C114.111 125.623 115.417 126.046 116.696 126.535C117.361 126.811 118.043 127.048 118.738 127.247C120.255 127.625 121.859 127.534 123.318 126.986C123.829 126.793 124.385 126.464 124.412 125.926C124.432 125.626 124.185 125.363 124.024 125.104C123.92 124.94 123.813 124.775 123.701 124.616C123.153 123.859 122.485 122.847 121.514 122.902Z" fill="black"/>
<path d="M105.361 126.153C105.861 126.315 106.366 126.465 106.875 126.602C107.149 126.156 107.696 125.845 107.814 125.334C107.821 125.312 107.821 125.288 107.814 125.266C107.8 125.244 107.78 125.227 107.756 125.216C107.39 125.025 106.985 124.912 106.568 124.885C106.24 124.867 106.089 125.193 105.942 125.423C105.884 125.524 105.495 126.203 105.361 126.153Z" fill="#FBBEBE"/>
<path d="M106.062 125.835C105.912 125.811 105.77 125.757 105.643 125.678C105.516 125.598 105.408 125.495 105.326 125.373C105.257 125.256 105.181 125.096 105.038 125.112C104.896 125.128 104.849 125.269 104.819 125.391C104.725 125.854 104.586 126.307 104.406 126.746C104.225 127.187 103.919 127.571 103.522 127.855C103.336 127.978 103.13 128.069 102.947 128.2C102.795 128.328 102.633 128.445 102.463 128.549C102.342 128.601 102.217 128.645 102.09 128.68C101.903 128.747 101.725 128.835 101.559 128.941C101.412 129.022 101.287 129.135 101.195 129.272C101.15 129.341 101.124 129.419 101.119 129.5C101.114 129.581 101.131 129.661 101.168 129.734C101.206 129.794 101.257 129.846 101.318 129.885C101.379 129.925 101.448 129.952 101.521 129.964C101.667 129.985 101.816 129.985 101.962 129.964C102.545 129.925 103.128 129.875 103.711 129.826C103.957 129.81 104.201 129.778 104.442 129.729L104.822 129.63C105.039 129.575 105.263 129.544 105.487 129.536C105.553 129.53 105.619 129.536 105.682 129.554C105.816 129.596 105.911 129.724 106.051 129.75C106.144 129.758 106.237 129.747 106.325 129.716C106.75 129.629 107.184 129.586 107.619 129.588C107.811 129.588 108.036 129.541 108.123 129.379C108.233 129.176 108.052 128.949 107.978 128.729C107.943 128.59 107.923 128.447 107.918 128.304C107.885 127.949 107.776 127.604 107.598 127.291C107.45 127.03 107.247 126.743 107.351 126.467C107.403 126.379 107.436 126.282 107.45 126.182C107.409 125.733 106.33 125.893 106.062 125.835Z" fill="#2F2E41"/>
<path d="M116.721 118.011C116.153 117.774 115.699 117.344 115.445 116.805C115.393 116.69 115.349 116.568 115.297 116.453C115.13 116.064 114.87 115.718 114.536 115.443C114.501 115.407 114.459 115.379 114.412 115.36C114.365 115.34 114.314 115.33 114.263 115.331C114.212 115.345 114.166 115.372 114.13 115.41C114.094 115.447 114.069 115.492 114.057 115.542C114.027 115.648 114.019 115.759 114.036 115.868C114.063 116.125 114.109 116.379 114.172 116.63L114.328 117.304C114.349 117.407 114.381 117.507 114.424 117.604C114.491 117.717 114.579 117.817 114.684 117.899C114.827 118.024 114.972 118.144 115.117 118.264C115.201 118.334 115.292 118.394 115.39 118.444C115.543 118.514 115.707 118.56 115.875 118.58C116.528 118.661 117.151 118.89 117.692 119.248C117.692 119.248 117.692 118.796 117.692 118.747C117.686 118.616 117.638 118.489 117.556 118.384C117.305 118.21 117.021 118.083 116.721 118.011Z" fill="#FBBEBE"/>
<path opacity="0.1" d="M116.721 118.011C116.153 117.774 115.699 117.344 115.445 116.805C115.393 116.69 115.349 116.568 115.297 116.453C115.13 116.064 114.87 115.718 114.536 115.443C114.501 115.407 114.459 115.379 114.412 115.36C114.365 115.34 114.314 115.33 114.263 115.331C114.212 115.345 114.166 115.372 114.13 115.41C114.094 115.447 114.069 115.492 114.057 115.542C114.027 115.648 114.019 115.759 114.036 115.868C114.063 116.125 114.109 116.379 114.172 116.63L114.328 117.304C114.349 117.407 114.381 117.507 114.424 117.604C114.491 117.717 114.579 117.817 114.684 117.899C114.827 118.024 114.972 118.144 115.117 118.264C115.201 118.334 115.292 118.394 115.39 118.444C115.543 118.514 115.707 118.56 115.875 118.58C116.528 118.661 117.151 118.89 117.692 119.248C117.692 119.248 117.692 118.796 117.692 118.747C117.686 118.616 117.638 118.489 117.556 118.384C117.305 118.21 117.021 118.083 116.721 118.011Z" fill="black"/>
<path d="M123.23 112.859C123.659 112.859 124.007 112.525 124.007 112.112C124.007 111.7 123.659 111.366 123.23 111.366C122.801 111.366 122.453 111.7 122.453 112.112C122.453 112.525 122.801 112.859 123.23 112.859Z" fill="#2F2E41"/>
<path d="M122.748 111.663C122.54 111.616 122.321 111.646 122.135 111.747C122.045 111.823 121.973 111.917 121.924 112.021C121.75 112.307 121.614 112.612 121.519 112.929C121.451 113.19 121.44 113.485 121.352 113.754C121.193 114.25 120.786 114.67 120.739 115.187C120.717 115.419 120.758 115.691 120.58 115.847C120.537 115.883 120.49 115.915 120.441 115.944C120.317 116.022 120.213 116.124 120.134 116.244C120.081 116.35 120.007 116.447 119.918 116.528C119.759 116.641 119.496 116.63 119.42 116.789C119.343 116.948 119.543 117.165 119.496 117.353C119.45 117.541 119.277 117.577 119.154 117.682C119.009 117.828 118.907 118.008 118.859 118.204C118.598 118.252 118.33 118.245 118.073 118.184C117.816 118.123 117.576 118.01 117.37 117.852C117.55 118.375 117.629 118.925 117.602 119.475C117.616 119.563 117.611 119.653 117.587 119.739C117.564 119.825 117.522 119.905 117.465 119.976C118.083 120.02 118.694 120.121 119.291 120.279C119.55 120.361 119.829 120.361 120.088 120.279C120.226 120.208 120.35 120.114 120.454 120.002C120.783 119.684 121.128 119.337 121.207 118.895C121.227 118.646 121.231 118.396 121.221 118.146C121.252 117.837 121.319 117.531 121.421 117.236C121.594 116.622 121.71 115.995 121.768 115.362C121.804 114.97 122.16 114.657 122.346 114.318C122.696 113.657 123.057 112.971 123.082 112.23C123.093 111.99 123.005 111.69 122.748 111.663Z" fill="#2F2E41"/>
<path opacity="0.1" d="M122.748 111.663C122.54 111.616 122.321 111.646 122.135 111.747C122.045 111.823 121.973 111.917 121.924 112.021C121.75 112.307 121.614 112.612 121.519 112.929C121.451 113.19 121.44 113.485 121.352 113.754C121.193 114.25 120.786 114.67 120.739 115.187C120.717 115.419 120.758 115.691 120.58 115.847C120.537 115.883 120.49 115.915 120.441 115.944C120.317 116.022 120.213 116.124 120.134 116.244C120.081 116.35 120.007 116.447 119.918 116.528C119.759 116.641 119.496 116.63 119.42 116.789C119.343 116.948 119.543 117.165 119.496 117.353C119.45 117.541 119.277 117.577 119.154 117.682C119.009 117.828 118.907 118.008 118.859 118.204C118.598 118.252 118.33 118.245 118.073 118.184C117.816 118.123 117.576 118.01 117.37 117.852C117.55 118.375 117.629 118.925 117.602 119.475C117.616 119.563 117.611 119.653 117.587 119.739C117.564 119.825 117.522 119.905 117.465 119.976C118.083 120.02 118.694 120.121 119.291 120.279C119.55 120.361 119.829 120.361 120.088 120.279C120.226 120.208 120.35 120.114 120.454 120.002C120.783 119.684 121.128 119.337 121.207 118.895C121.227 118.646 121.231 118.396 121.221 118.146C121.252 117.837 121.319 117.531 121.421 117.236C121.594 116.622 121.71 115.995 121.768 115.362C121.804 114.97 122.16 114.657 122.346 114.318C122.696 113.657 123.057 112.971 123.082 112.23C123.093 111.99 123.005 111.69 122.748 111.663Z" fill="black"/>
<path d="M122.02 123.544C121.355 123.241 120.868 122.68 120.328 122.197C119.302 121.276 118.046 120.631 116.964 119.762C116.247 119.19 115.596 118.525 114.821 118.045C114.127 117.625 113.342 117.364 112.525 117.28C112.435 117.26 112.341 117.26 112.251 117.28C112.147 117.322 112.058 117.389 111.991 117.476C111.642 117.851 111.331 118.258 111.063 118.689C109.694 120.908 107.748 122.771 106.136 124.833C106.099 124.876 106.072 124.926 106.057 124.979C106.05 125.059 106.071 125.139 106.117 125.206L106.445 125.817C106.629 126.161 106.924 126.561 107.318 126.493C107.496 126.444 107.655 126.347 107.776 126.214L109.248 124.869L110.792 123.463C111.695 122.641 112.615 121.798 113.206 120.743C113.666 121.505 114.484 122.004 115.043 122.701C115.256 122.962 115.432 123.257 115.623 123.538C115.927 123.987 116.275 124.41 116.62 124.843L118.39 126.997C118.615 127.301 118.893 127.565 119.212 127.779C119.648 128.006 120.135 128.13 120.632 128.142C121.298 128.199 121.965 128.221 122.633 128.21C123.145 128.23 123.654 128.141 124.125 127.949C124.36 127.851 124.56 127.691 124.703 127.488C124.846 127.285 124.926 127.048 124.932 126.803C124.905 126.551 124.818 126.307 124.678 126.091C124.037 125.003 123.211 124.084 122.02 123.544Z" fill="#2F2E41"/>
<path d="M123.709 113.203C124.04 113.203 124.308 112.946 124.308 112.629C124.308 112.312 124.04 112.055 123.709 112.055C123.378 112.055 123.109 112.312 123.109 112.629C123.109 112.946 123.378 113.203 123.709 113.203Z" fill="#E8E8F0"/>
<path d="M123.578 112.199C123.711 112.455 123.735 112.751 123.643 113.023C123.549 113.291 123.419 113.546 123.257 113.783C123.118 114.026 122.95 114.254 122.756 114.461C123.682 114.503 124.577 114.159 125.39 113.741C126.047 113.404 126.701 112.989 127.051 112.36C126.947 112.384 126.838 112.387 126.732 112.368C126.627 112.349 126.526 112.309 126.438 112.251C126.262 112.135 126.104 111.995 125.97 111.836L125.507 111.34C125.402 111.231 125.311 111.111 125.234 110.982C125.132 110.806 125.089 110.605 125.11 110.406C124.926 110.589 124.72 110.752 124.497 110.891C124.166 111.097 123.802 111.246 123.468 111.449C123.353 111.523 123.09 111.637 123.159 111.784C123.227 111.93 123.485 112.042 123.578 112.199Z" fill="#FBBEBE"/>
<path opacity="0.1" d="M123.578 112.199C123.711 112.455 123.735 112.751 123.643 113.023C123.549 113.291 123.419 113.546 123.257 113.783C123.118 114.026 122.95 114.254 122.756 114.461C123.682 114.503 124.577 114.159 125.39 113.741C126.047 113.404 126.701 112.989 127.051 112.36C126.947 112.384 126.838 112.387 126.732 112.368C126.627 112.349 126.526 112.309 126.438 112.251C126.262 112.135 126.104 111.995 125.97 111.836L125.507 111.34C125.402 111.231 125.311 111.111 125.234 110.982C125.132 110.806 125.089 110.605 125.11 110.406C124.926 110.589 124.72 110.752 124.497 110.891C124.166 111.097 123.802 111.246 123.468 111.449C123.353 111.523 123.09 111.637 123.159 111.784C123.227 111.93 123.485 112.042 123.578 112.199Z" fill="black"/>
<path d="M123.589 112.285C123.495 112.41 123.445 112.561 123.445 112.715C123.445 112.87 123.495 113.02 123.589 113.146C123.616 113.177 123.714 113.373 123.756 113.376C123.776 113.374 123.795 113.368 123.813 113.36C123.831 113.351 123.847 113.338 123.86 113.323C124.07 113.114 124.266 112.892 124.445 112.658C124.629 112.424 124.892 112.26 125.19 112.193C125.559 112.18 125.921 112.288 126.216 112.499C126.354 112.558 126.475 112.648 126.569 112.76C126.635 112.875 126.675 113.002 126.684 113.133C126.774 113.921 126.809 114.713 126.788 115.505C126.804 116.077 126.765 116.649 126.671 117.215C126.61 117.504 126.523 117.789 126.482 118.084C126.45 118.344 126.437 118.605 126.443 118.867V119.958C126.436 120.158 126.451 120.358 126.487 120.555C126.542 120.793 126.66 121.015 126.739 121.247C126.821 121.514 126.877 121.787 126.906 122.064L127.062 123.191C127.111 123.546 127.15 123.935 126.923 124.235C126.821 124.363 126.687 124.468 126.583 124.595C126.197 125.076 126.309 125.762 126.159 126.349C126.032 126.779 125.77 127.162 125.409 127.445C125.28 127.567 125.125 127.66 124.954 127.718C124.783 127.776 124.601 127.798 124.421 127.782C123.939 127.696 123.652 127.218 123.52 126.767C123.389 126.315 123.342 125.825 123.058 125.444C122.796 125.155 122.487 124.909 122.143 124.715C121.795 124.519 121.539 124.202 121.429 123.831C121.399 123.666 121.429 123.497 121.399 123.33C121.373 123.119 121.289 122.92 121.154 122.751C121.02 122.583 120.841 122.452 120.635 122.372C120.389 122.28 120.088 122.247 119.945 122.032C120.298 121.822 120.555 121.493 120.665 121.111C120.774 120.732 120.833 120.341 120.84 119.947L120.922 118.642C120.961 118.055 120.977 117.476 121.248 116.948C121.369 116.714 121.522 116.492 121.645 116.259C121.812 115.933 121.954 115.595 122.069 115.249C122.266 114.712 122.464 114.174 122.639 113.631C122.707 113.368 122.812 113.114 122.951 112.877C123.099 112.632 123.312 112.337 123.589 112.285Z" fill="#E8E8F0"/>
<path d="M120.536 120.803H120.901L120.977 120.281C120.987 120.177 121.013 120.074 121.054 119.976C121.114 119.872 121.185 119.775 121.265 119.684C121.62 119.201 121.596 118.562 121.683 117.974C121.842 117.198 122.111 116.447 122.483 115.74L123.189 114.24C123.253 114.117 123.305 113.988 123.342 113.856C123.372 113.71 123.386 113.561 123.386 113.412C123.386 113.18 123.463 112.334 123.471 112.107C123.471 112.021 123.271 112.068 123.23 111.993C123.142 111.825 123.022 112.277 122.855 112.376C122.698 112.49 122.584 112.65 122.529 112.83C122.376 113.206 122.283 113.613 122.141 113.986C122.017 114.376 121.79 114.728 121.481 115.01C121.336 115.13 121.169 115.226 121.032 115.357C120.594 115.769 120.55 116.424 120.536 117.014C120.526 117.374 120.454 120.803 120.536 120.803Z" fill="#2F2E41"/>
<path d="M125.776 111.661C125.606 111.745 125.46 111.866 125.347 112.013C125.235 112.16 125.159 112.33 125.127 112.509C125.064 112.869 124.954 113.22 124.798 113.553C124.355 114.289 123.224 114.503 122.91 115.299C122.831 115.567 122.788 115.843 122.784 116.121C122.729 116.693 122.532 117.243 122.472 117.812C122.442 118.255 122.453 118.7 122.505 119.141L122.901 123.635C122.977 124.296 122.938 124.965 122.784 125.613C123.191 125.669 123.605 125.603 123.972 125.425C124.341 125.264 124.681 125.042 125.039 124.854C125.652 124.53 126.331 124.303 126.87 123.873C126.967 123.799 127.05 123.711 127.117 123.612C127.199 123.423 127.255 123.224 127.281 123.022C127.328 122.863 127.387 122.707 127.459 122.557C127.657 122.103 127.828 121.64 127.974 121.169C128.072 120.857 128.151 120.54 128.209 120.219C128.253 119.958 128.277 119.697 128.299 119.436C128.328 119.031 128.413 118.632 128.551 118.248C128.895 117.332 129.089 116.371 129.129 115.398C129.139 115.258 129.129 115.118 129.099 114.981C129.038 114.813 128.958 114.653 128.858 114.503C128.693 114.208 128.584 113.885 128.442 113.584C128.053 112.923 127.497 112.366 126.824 111.964C126.506 111.757 126.134 111.538 125.776 111.661Z" fill="#2F2E41"/>
<path d="M117.506 118.995C117.225 118.854 116.971 118.67 116.754 118.449C116.655 118.34 116.573 118.217 116.48 118.107C116.226 117.847 115.896 117.665 115.533 117.585C115.173 117.51 114.806 117.476 114.438 117.483C114.191 117.468 113.943 117.496 113.707 117.567C113.589 117.605 113.483 117.67 113.399 117.756C113.314 117.843 113.254 117.948 113.223 118.063C113.213 118.205 113.241 118.347 113.306 118.475C113.371 118.603 113.47 118.713 113.592 118.794C113.806 118.961 114.058 119.077 114.328 119.133C114.548 119.17 114.771 119.195 114.994 119.209C116.302 119.339 117.471 120.018 118.618 120.636C119.625 121.183 120.652 121.691 121.7 122.16C121.74 121.862 121.758 121.561 121.752 121.26C121.752 121.036 121.733 120.691 121.511 120.558C121.196 120.432 120.867 120.338 120.531 120.279C119.856 120.068 119.196 119.814 118.557 119.517C118.196 119.368 117.849 119.185 117.506 118.995Z" fill="#FBBEBE"/>
<path d="M123.23 111.943C124.518 111.943 125.562 110.941 125.562 109.706C125.562 108.471 124.518 107.469 123.23 107.469C121.942 107.469 120.898 108.471 120.898 109.706C120.898 110.941 121.942 111.943 123.23 111.943Z" fill="#FBBEBE"/>
<path d="M126.441 114.195C126.254 114.444 126.103 114.715 125.989 115.002C125.715 115.565 125.25 116.045 125.023 116.643C124.796 117.241 124.793 118.008 124.325 118.496C124.231 118.571 124.16 118.668 124.12 118.778C124.118 118.846 124.11 118.914 124.098 118.982C124.029 119.159 123.725 119.167 123.668 119.35C123.651 119.402 123.668 119.459 123.641 119.511C123.594 119.629 123.43 119.647 123.323 119.718C123.096 119.864 123.142 120.203 122.981 120.414C122.91 120.493 122.819 120.553 122.717 120.587C122.615 120.621 122.504 120.629 122.398 120.61C122.185 120.569 121.981 120.496 121.793 120.394C121.725 120.358 121.651 120.336 121.574 120.328C121.483 120.331 121.395 120.36 121.322 120.412C121.116 120.557 120.95 120.748 120.84 120.969C120.73 121.19 120.68 121.433 120.693 121.678C120.724 122.167 120.846 122.647 121.054 123.095C121.077 123.172 121.117 123.244 121.172 123.306C121.253 123.367 121.352 123.404 121.455 123.411C121.558 123.419 121.662 123.397 121.752 123.348C121.93 123.247 122.121 123.165 122.318 123.105C122.68 123.043 123.033 123.28 123.4 123.259C123.667 123.222 123.918 123.116 124.128 122.954C124.496 122.744 124.827 122.48 125.108 122.171C125.266 121.97 125.381 121.743 125.524 121.529C125.705 121.269 125.901 121.019 126.112 120.78L127.459 119.214C127.593 119.065 127.714 118.906 127.82 118.739C127.94 118.51 128.032 118.27 128.094 118.021C128.238 117.608 128.33 117.179 128.368 116.745C128.376 116.386 128.343 116.027 128.269 115.675C128.228 115.324 128.136 114.981 127.995 114.654C127.703 114.065 126.991 113.584 126.441 114.195Z" fill="#2F2E41"/>
<path d="M131.127 111.277C131.129 110.881 131.032 110.49 130.845 110.136C130.657 109.782 130.384 109.475 130.048 109.242C130.037 108.537 129.765 107.86 129.279 107.329C128.794 106.798 128.126 106.448 127.396 106.342C127.256 105.674 126.872 105.075 126.314 104.651C125.755 104.226 125.057 104.003 124.343 104.022C123.629 104.04 122.945 104.299 122.411 104.751C121.877 105.204 121.528 105.822 121.426 106.496C120.457 106.287 119.57 106.559 119.409 107.128C119.247 107.697 119.932 108.433 120.953 108.694C121.275 108.78 121.61 108.811 121.943 108.788C122.181 109.122 122.489 109.404 122.849 109.618C123.208 109.831 123.61 109.971 124.029 110.027C124.153 110.565 124.432 111.06 124.834 111.455C125.237 111.851 125.746 112.132 126.307 112.267C126.463 112.623 126.703 112.94 127.01 113.193C127.01 113.264 127.01 113.337 127.01 113.41C127.01 113.657 127.061 113.901 127.16 114.13C127.259 114.358 127.405 114.566 127.588 114.74C127.771 114.915 127.989 115.054 128.228 115.148C128.468 115.243 128.724 115.291 128.984 115.291C129.243 115.291 129.499 115.243 129.739 115.148C129.978 115.054 130.196 114.915 130.379 114.74C130.562 114.566 130.708 114.358 130.807 114.13C130.906 113.901 130.957 113.657 130.957 113.41C130.957 113.122 130.893 112.839 130.768 112.577C131.009 112.183 131.133 111.734 131.127 111.277Z" fill="#F86D70"/>
<path opacity="0.1" d="M120.066 107.248C120.227 106.679 121.114 106.407 122.083 106.616C122.198 105.931 122.563 105.307 123.114 104.854C123.665 104.402 124.367 104.149 125.094 104.142H125.294C125.015 104.061 124.726 104.02 124.434 104.019C123.707 104.027 123.006 104.279 122.455 104.732C121.904 105.185 121.538 105.809 121.423 106.493C120.454 106.285 119.568 106.556 119.406 107.125C119.245 107.694 119.929 108.43 120.95 108.691C121.141 108.741 121.337 108.774 121.536 108.788C120.558 108.508 119.904 107.83 120.066 107.248Z" fill="black"/>
<path opacity="0.1" d="M127.656 113.519C127.652 113.448 127.652 113.376 127.656 113.305C127.348 113.054 127.107 112.736 126.953 112.379C126.392 112.244 125.881 111.963 125.479 111.567C125.076 111.171 124.798 110.676 124.675 110.137C124.256 110.081 123.853 109.943 123.493 109.73C123.133 109.517 122.825 109.234 122.587 108.9C122.392 108.915 122.197 108.91 122.004 108.884C122.243 109.191 122.545 109.45 122.89 109.646C123.235 109.842 123.618 109.971 124.016 110.025C124.14 110.563 124.419 111.057 124.821 111.452C125.223 111.848 125.733 112.129 126.293 112.264C126.449 112.62 126.69 112.938 126.996 113.19C126.996 113.261 126.996 113.334 126.996 113.407C126.988 113.913 127.189 114.401 127.557 114.766C127.924 115.131 128.428 115.342 128.959 115.354C128.572 115.211 128.24 114.958 128.007 114.63C127.774 114.303 127.652 113.915 127.656 113.519Z" fill="black"/>
<path d="M124.299 110.527C124.457 110.413 124.455 110.158 124.295 109.957C124.135 109.756 123.878 109.686 123.72 109.8C123.562 109.914 123.564 110.169 123.724 110.37C123.884 110.571 124.142 110.641 124.299 110.527Z" fill="#FBBEBE"/>
<defs>
<linearGradient id="paint0_linear" x1="209.964" y1="148.75" x2="209.964" y2="103.829" gradientUnits="userSpaceOnUse">
<stop stop-color="#808080" stop-opacity="0.25"/>
<stop offset="0.54" stop-color="#808080" stop-opacity="0.12"/>
<stop offset="1" stop-color="#808080" stop-opacity="0.1"/>
</linearGradient>
<linearGradient id="paint1_linear" x1="17082.7" y1="17495.4" x2="17082.7" y2="14836.9" gradientUnits="userSpaceOnUse">
<stop stop-color="#808080" stop-opacity="0.25"/>
<stop offset="0.54" stop-color="#808080" stop-opacity="0.12"/>
<stop offset="1" stop-color="#808080" stop-opacity="0.1"/>
</linearGradient>
</defs>
</svg>
