<svg width="157" height="150" viewBox="0 0 157 150" fill="none" xmlns="http://www.w3.org/2000/svg">
<g clip-path="url(#clip0)">
<path d="M97.693 150H0V36.6162L14.7607 20.2578H97.693V150Z" fill="url(#paint0_linear)"/>
<path d="M96.1846 146.552H1.7262V37.501L15.997 21.767H96.1846V146.552Z" fill="#FAFAFA"/>
<path d="M56.9656 35.2361H10.9476V42.9942H56.9656V35.2361Z" fill="#E0E0E0"/>
<path d="M44.7624 56.4654H11.0402V64.2235H44.7624V56.4654Z" fill="#E0E0E0"/>
<path d="M86.6818 88.3613H11.0402V116.809H86.6818V88.3613Z" fill="#066660"/>
<path d="M86.6817 35.3441H69.5409V43.1022H86.6817V35.3441Z" fill="#F5F5F5"/>
<path d="M86.6817 47.4139H69.5409V55.172H86.6817V47.4139Z" fill="#F5F5F5"/>
<path d="M17.4686 21.767V39.0082H1.7262V37.501L15.9584 21.767H17.4686Z" fill="url(#paint1_linear)"/>
<path d="M1.68762 37.5009L15.9584 21.767V37.5009H1.68762Z" fill="#EEEEEE"/>
<path d="M127.67 139.223H29.9766V25.8397L44.7373 9.48315H127.67V139.223Z" fill="url(#paint2_linear)"/>
<path d="M126.161 135.775H31.7028V26.7245L45.9736 10.9905H126.161V135.775Z" fill="#FAFAFA"/>
<path d="M86.9422 24.4616H40.9242V32.2197H86.9422V24.4616Z" fill="#E0E0E0"/>
<path d="M74.7389 45.6889H41.0167V53.447H74.7389V45.6889Z" fill="#E0E0E0"/>
<path d="M116.658 77.5867H41.0167V106.034H116.658V77.5867Z" fill="#066660"/>
<path d="M116.658 24.5695H99.5176V32.3276H116.658V24.5695Z" fill="#F5F5F5"/>
<path d="M116.658 36.6375H99.5176V44.3955H116.658V36.6375Z" fill="#F5F5F5"/>
<path d="M47.4452 10.9905V28.2318H31.7028V26.7245L45.935 10.9905H47.4452Z" fill="url(#paint3_linear)"/>
<path d="M31.6642 26.7245L45.935 10.9905V26.7245H31.6642Z" fill="#EEEEEE"/>
<path d="M157 129.742H59.307V16.3585L74.0658 0H157V129.742Z" fill="url(#paint4_linear)"/>
<path d="M155.49 126.294H61.0314V17.2413L75.3041 1.50922H155.49V126.294Z" fill="white"/>
<path d="M116.273 14.9784H70.2546V22.7365H116.273V14.9784Z" fill="#E0E0E0"/>
<path d="M104.069 36.2076H70.3472V43.9657H104.069V36.2076Z" fill="#E0E0E0"/>
<path d="M145.989 68.1035H70.3472V96.5511H145.989V68.1035Z" fill="#066660"/>
<path d="M145.989 15.0864H128.848V22.8445H145.989V15.0864Z" fill="#E0E0E0"/>
<path d="M145.989 27.1543H128.848V34.9124H145.989V27.1543Z" fill="#E0E0E0"/>
<path d="M145.989 39.2241H128.848V46.9822H145.989V39.2241Z" fill="#E0E0E0"/>
<path d="M76.7757 1.50922V18.7505H61.0314V17.2413L75.2655 1.50922H76.7757Z" fill="url(#paint5_linear)"/>
<path d="M60.9928 17.2413L75.2655 1.50922V17.2413H60.9928Z" fill="#EEEEEE"/>
</g>
<defs>
<linearGradient id="paint0_linear" x1="48.8474" y1="150" x2="48.8474" y2="20.2578" gradientUnits="userSpaceOnUse">
<stop offset="0.01" stop-color="#808080" stop-opacity="0.25"/>
<stop offset="0.54" stop-color="#808080" stop-opacity="0.12"/>
<stop offset="1" stop-color="#808080" stop-opacity="0.1"/>
</linearGradient>
<linearGradient id="paint1_linear" x1="9.59741" y1="39.0082" x2="9.59741" y2="21.767" gradientUnits="userSpaceOnUse">
<stop stop-color="#B3B3B3" stop-opacity="0.25"/>
<stop offset="0.54" stop-color="#B3B3B3" stop-opacity="0.1"/>
<stop offset="1" stop-color="#B3B3B3" stop-opacity="0.05"/>
</linearGradient>
<linearGradient id="paint2_linear" x1="39955.1" y1="93722.2" x2="39955.1" y2="6392.71" gradientUnits="userSpaceOnUse">
<stop offset="0.01" stop-color="#808080" stop-opacity="0.25"/>
<stop offset="0.54" stop-color="#808080" stop-opacity="0.12"/>
<stop offset="1" stop-color="#808080" stop-opacity="0.1"/>
</linearGradient>
<linearGradient id="paint3_linear" x1="3261.73" y1="2536.49" x2="3261.73" y2="994.088" gradientUnits="userSpaceOnUse">
<stop stop-color="#B3B3B3" stop-opacity="0.25"/>
<stop offset="0.54" stop-color="#B3B3B3" stop-opacity="0.1"/>
<stop offset="1" stop-color="#B3B3B3" stop-opacity="0.05"/>
</linearGradient>
<linearGradient id="paint4_linear" x1="54839.7" y1="87332.1" x2="54839.7" y2="0" gradientUnits="userSpaceOnUse">
<stop offset="0.01" stop-color="#808080" stop-opacity="0.25"/>
<stop offset="0.54" stop-color="#808080" stop-opacity="0.12"/>
<stop offset="1" stop-color="#808080" stop-opacity="0.1"/>
</linearGradient>
<linearGradient id="paint5_linear" x1="5685.55" y1="1678.74" x2="5685.55" y2="136.508" gradientUnits="userSpaceOnUse">
<stop stop-color="#B3B3B3" stop-opacity="0.25"/>
<stop offset="0.54" stop-color="#B3B3B3" stop-opacity="0.1"/>
<stop offset="1" stop-color="#B3B3B3" stop-opacity="0.05"/>
</linearGradient>
<clipPath id="clip0">
<rect width="157" height="150" fill="white"/>
</clipPath>
</defs>
</svg>
