<svg width="472" height="412" viewBox="0 0 472 412" fill="none" xmlns="http://www.w3.org/2000/svg">
<g opacity="0.95" clip-path="url(#clip0)">
<path d="M68.4996 144.488C68.4996 144.488 106.896 182.856 85.2224 239.766C63.5488 296.677 122.372 391.395 122.372 391.395C122.372 391.395 121.743 391.301 120.575 391.096C41.718 377.187 2.53571 287.065 46.4069 220.135C62.6896 195.221 76.0699 166.025 68.4996 144.488Z" fill="#179890"/>
<path d="M68.4996 144.488C68.4996 144.488 90.1732 191.52 68.4996 229.882C46.8259 268.245 64.7851 375.941 122.377 391.395" stroke="#535461" stroke-width="2" stroke-miterlimit="10"/>
<path d="M0.109985 299.666C0.109985 299.666 43.9235 292.693 47.9156 331.93C51.9077 371.166 132.169 376.606 132.169 376.606C132.169 376.606 131.645 376.962 130.665 377.606C64.3974 421.057 1.053 405.294 10.6036 347.577C14.1504 326.119 13.857 304.566 0.109985 299.666Z" fill="#6C63FF"/>
<path opacity="0.8" d="M0.109985 299.666C0.109985 299.666 43.9235 292.693 47.9156 331.93C51.9077 371.166 132.169 376.606 132.169 376.606C132.169 376.606 131.645 376.962 130.665 377.606C64.3974 421.057 1.053 405.294 10.6036 347.577C14.1504 326.119 13.857 304.566 0.109985 299.666Z" fill="#179890"/>
<path d="M0.109985 299.666C0.109985 299.666 34.1162 307.126 31.3238 338.023C28.5314 368.921 81.8275 405.98 132.169 376.606" stroke="#535461" stroke-width="2" stroke-miterlimit="10"/>
<path d="M377.546 204.749C375.783 194.939 374.701 185.02 374.309 175.061C373.961 166.859 371.082 158.966 366.068 152.463C361.053 145.961 354.149 141.167 346.301 138.74C343.441 137.86 340.292 137.038 336.813 136.3C306.323 129.83 297.06 135.478 296.007 136.222C295.115 134.602 294.34 132.921 293.686 131.191C293.634 131.013 293.587 130.835 293.534 130.667C299.569 124.237 303.246 115.953 303.965 107.167C309.052 102.016 312.023 95.7965 312.023 89.1009C312.023 83.3423 309.822 77.9397 305.972 73.2648V64.1663C305.972 53.6739 301.8 43.6113 294.376 36.1921C286.951 28.7729 276.881 24.6048 266.381 24.6048H263.169C257.97 24.6048 252.822 25.6281 248.018 27.6163C243.215 29.6044 238.851 32.5185 235.174 36.1921C231.498 39.8657 228.582 44.2269 226.592 49.0268C224.602 53.8266 223.578 58.971 223.578 64.1663V73.9715C220.084 78.4789 218.104 83.625 218.104 89.0904C218.104 95.6447 220.954 101.738 225.847 106.827C226.515 115.935 230.361 124.52 236.712 131.086C236.927 132.573 237.147 134.17 237.362 135.855L182.824 147.367C182.824 147.367 161.795 148.231 148.247 176.16C136.789 199.817 113.989 260.597 107.236 278.689C106.016 281.966 105.324 283.845 105.324 283.845C105.324 283.845 105.55 283.62 105.974 283.233L105.324 284.997C105.324 284.997 105.654 284.662 106.283 284.112C105.329 291.682 105.193 304.681 115.116 306.299C123.435 307.655 144.873 308.215 161.067 308.44H162.188C172.923 308.581 181.09 308.581 181.09 308.581V308.44H355.255V306.655C355.257 305.036 354.93 303.433 354.296 301.943L354.537 301.65C355.469 302.88 356.089 304.317 356.344 305.838C356.324 305.986 356.296 306.133 356.261 306.278L356.365 306.011C356.406 306.486 356.371 306.965 356.261 307.429C356.261 307.429 378.605 249.901 378.364 215.549C378.428 211.931 378.154 208.316 377.546 204.749ZM238.268 143.629C237.98 141.988 237.794 140.331 237.713 138.667C237.713 138.667 237.713 138.635 237.713 138.619C237.907 140.237 238.095 141.912 238.268 143.629ZM170.57 267.198V280.909L161.978 282.746L170.57 267.198Z" fill="url(#paint0_linear)"/>
<path d="M263.892 30.1383C274.392 30.1383 284.463 34.3064 291.887 41.7256C299.312 49.1448 303.483 59.2074 303.483 69.6997V86.5776H224.301V69.6997C224.301 59.2074 228.473 49.1448 235.897 41.7256C243.322 34.3064 253.392 30.1383 263.892 30.1383Z" fill="#007972"/>
<path d="M264.17 123.097C289.094 123.097 309.299 109.224 309.299 92.1111C309.299 74.9977 289.094 61.1247 264.17 61.1247C239.246 61.1247 219.042 74.9977 219.042 92.1111C219.042 109.224 239.246 123.097 264.17 123.097Z" fill="#00524D"/>
<path d="M235.24 122.129C235.24 122.129 244.671 171.375 235.24 184.657C225.81 197.938 264.055 203.194 264.055 203.194L303.64 188.808L309.178 153.393C309.178 153.393 285.079 139.834 290.071 112.444L235.24 122.129Z" fill="#F7C4A7"/>
<path d="M352.08 288.133C352.08 288.133 354.574 298.923 341.005 300.86C332.993 302.037 324.845 301.94 316.864 300.572L313.872 273.47H345.437L352.08 288.133Z" fill="#F7C4A7"/>
<path d="M112.481 274.323C112.481 274.323 106.487 298.661 120.056 300.859C133.625 303.058 183.448 303.074 183.448 303.074V274.281L160.889 279.097L139.713 258.806L112.481 274.323Z" fill="#F7C4A7"/>
<path opacity="0.1" d="M238.153 138.038L185.13 149.241C185.13 149.241 164.918 150.074 151.904 176.909C138.89 203.744 110.647 280.385 110.647 280.385C110.647 280.385 134.746 256.037 162.979 282.045L181.808 248.017L177.654 301.969H323.549V276.511C323.549 276.511 354.003 292.834 351.792 301.964C351.792 301.964 377.856 234.861 372.224 204.367C370.528 194.94 369.489 185.406 369.112 175.836C368.779 167.953 366.013 160.367 361.194 154.117C356.374 147.868 349.737 143.263 342.194 140.933C339.449 140.09 336.431 139.3 333.078 138.593C301.791 131.955 293.786 138.593 293.786 138.593C293.786 138.593 287.724 158.298 287.834 167.229C287.971 178.71 271.499 186.321 271.499 186.321C271.499 186.321 247.133 180.51 246.027 175.809C244.922 171.108 236.204 143.572 238.153 138.038Z" fill="black"/>
<path d="M238.153 136.934L185.13 148.137C185.13 148.137 164.918 148.969 151.904 175.804C138.89 202.639 110.642 279.291 110.642 279.291C110.642 279.291 134.741 254.943 162.974 280.95L181.803 246.923L177.648 300.859H323.548V275.407C323.548 275.407 354.003 291.729 351.792 300.859C351.792 300.859 377.856 233.756 372.224 203.262C370.528 193.835 369.489 184.302 369.112 174.731C368.779 166.848 366.013 159.262 361.194 153.013C356.374 146.764 349.737 142.158 342.194 139.829C339.449 138.986 336.431 138.195 333.078 137.489C301.791 130.851 293.786 137.489 293.786 137.489C293.786 137.489 287.724 157.193 287.834 166.124C287.971 177.605 271.499 185.217 271.499 185.217C271.499 185.217 247.133 179.406 246.027 174.705C244.922 170.004 236.204 142.467 238.153 136.934Z" fill="#066660"/>
<path opacity="0.1" d="M292.335 134.583C290.107 128.282 289.608 121.5 290.889 114.941L236.058 124.621C236.058 124.621 236.849 128.762 237.745 134.965C241.287 138.639 245.541 141.554 250.246 143.533C254.952 145.512 260.011 146.515 265.116 146.479C270.222 146.443 275.267 145.37 279.944 143.325C284.621 141.28 288.833 138.306 292.324 134.583H292.335Z" fill="black"/>
<path d="M301.686 106.361C301.643 116.234 297.719 125.694 290.76 132.702C283.801 139.71 274.364 143.705 264.485 143.824C254.605 143.944 245.075 140.179 237.948 133.341C230.821 126.503 226.669 117.141 226.386 107.272C226.386 106.968 226.386 106.665 226.386 106.361C226.385 99.3155 228.362 92.4111 232.094 86.4333C235.825 80.4555 241.161 75.6445 247.494 72.5476C248.622 71.9962 249.782 71.5006 250.973 71.0608C257.168 68.7854 263.849 68.1646 270.357 69.26C278.698 70.6792 286.317 74.8662 291.983 81.1448C297.65 87.4235 301.033 95.4272 301.587 103.864C301.653 104.691 301.686 105.523 301.686 106.361Z" fill="#F7C4A7"/>
<g opacity="0.1">
<path opacity="0.1" d="M250.915 71.9456L250.968 71.9142C249.777 72.3539 248.617 72.8495 247.489 73.4009C241.156 76.4978 235.82 81.3089 232.089 87.2866C228.357 93.2644 226.38 100.169 226.381 107.214C226.381 107.518 226.381 107.821 226.381 108.125C227.552 108.094 228.703 107.817 229.76 107.314C238.939 103.031 244.429 89.9333 246.609 80.7981C247.395 77.5261 248.133 73.8407 250.915 71.9456Z" fill="black"/>
<path opacity="0.1" d="M279.735 72.9978C276.755 71.6297 273.607 70.6598 270.373 70.1133C273.025 70.7231 275.393 72.2099 277.094 74.3328C277.928 75.4656 278.62 76.6963 279.153 77.9973C274.142 75.8078 268.715 74.7324 263.247 74.8454C257.778 74.9584 252.4 76.2571 247.484 78.6517C249.847 83.8292 257.176 86.6509 262.069 88.5407C267.427 90.6068 272.84 92.4967 278.31 94.2103L273.469 90.284L284.403 92.0221C284.521 89.8477 284.262 87.6693 283.638 85.5829C285.734 87.2686 288.51 87.834 290.784 89.2475C295.043 91.9331 296.819 97.1001 299.14 101.576C299.753 102.759 300.476 103.968 301.581 104.717C301.134 97.9546 298.869 91.438 295.024 85.8552C291.179 80.2723 285.896 75.8303 279.735 72.9978Z" fill="black"/>
</g>
<path d="M250.915 71.0922L250.968 71.0608C249.777 71.5006 248.617 71.9962 247.489 72.5476C241.156 75.6445 235.82 80.4555 232.089 86.4333C228.357 92.4111 226.38 99.3155 226.381 106.361C226.381 106.665 226.381 106.968 226.381 107.272C227.552 107.24 228.703 106.964 229.76 106.46C238.939 102.178 244.429 89.08 246.609 79.9448C247.395 76.6938 248.133 72.9926 250.915 71.0922Z" fill="#2C2A34"/>
<path d="M279.735 72.1497C276.755 70.7816 273.607 69.8117 270.373 69.2652C273.025 69.875 275.394 71.3618 277.095 73.4847C277.928 74.6175 278.62 75.8482 279.153 77.1492C274.142 74.9598 268.715 73.8843 263.247 73.9973C257.779 74.1103 252.4 75.409 247.484 77.8036C249.847 82.9811 257.176 85.8028 262.069 87.6927C267.427 89.7588 272.841 91.6486 278.31 93.3622L273.469 89.4359L284.403 91.174C284.521 88.9996 284.262 86.8213 283.638 84.7348C285.734 86.4205 288.51 86.9859 290.784 88.3994C295.043 91.085 296.819 96.252 299.14 100.728C299.753 101.911 300.476 103.12 301.582 103.869C301.135 97.1065 298.869 90.5899 295.024 85.0071C291.179 79.4242 285.897 74.9822 279.735 72.1497Z" fill="#2C2A34"/>
<path opacity="0.1" d="M222.085 100.157C222.085 100.157 260.854 51.9947 305.705 100.157L301.828 89.3679C301.828 89.3679 280.783 58.659 265.836 65.2866C250.889 71.9142 236.21 76.631 236.21 76.631L222.085 100.157Z" fill="black"/>
<path d="M222.085 99.304C222.085 99.304 260.854 51.1414 305.705 99.304L301.828 88.5146C301.828 88.5146 280.783 57.8056 265.836 64.4332C250.889 71.0608 236.21 75.7776 236.21 75.7776L222.085 99.304Z" fill="#00524D"/>
<path opacity="0.1" d="M190.243 203.058C190.243 203.058 181.939 225.192 193.564 245.111C205.19 265.031 183.322 273.333 183.322 273.333" fill="black"/>
<path opacity="0.1" d="M324.806 183.138C324.806 183.138 339.203 201.398 329.788 217.721C320.374 234.044 320.929 273.333 320.929 273.333" fill="black"/>
<path d="M177.507 289.656H337.542C341.067 289.656 344.448 291.056 346.94 293.546C349.433 296.037 350.833 299.415 350.833 302.938H164.221C164.221 299.416 165.62 296.039 168.112 293.548C170.603 291.058 173.983 289.658 177.507 289.656Z" fill="#535461"/>
<path d="M193.79 198.352H321.264C323.947 198.352 326.604 198.88 329.083 199.906C331.562 200.932 333.815 202.436 335.712 204.332C337.609 206.227 339.114 208.478 340.141 210.955C341.168 213.432 341.696 216.087 341.696 218.768V292.698H173.358V218.768C173.358 213.353 175.51 208.16 179.342 204.332C183.174 200.503 188.371 198.352 193.79 198.352Z" fill="#241F36"/>
<path d="M257.386 259.638C262.892 259.638 267.355 255.178 267.355 249.676C267.355 244.174 262.892 239.714 257.386 239.714C251.879 239.714 247.416 244.174 247.416 249.676C247.416 255.178 251.879 259.638 257.386 259.638Z" fill="white"/>
<path opacity="0.1" d="M224.301 77.5837C224.301 77.5837 262.399 39.5353 303.488 76.8875" stroke="black" stroke-miterlimit="10"/>
<path d="M313.112 75.1599H309.288V96.8279H313.112V75.1599Z" fill="#A40606"/>
<path d="M304.185 89.1794C307.681 89.1794 311.034 90.5671 313.506 93.0372C315.978 95.5074 317.366 98.8576 317.366 102.351V103.199C317.366 106.692 315.978 110.042 313.506 112.513C311.034 114.983 307.681 116.37 304.185 116.37V89.1794Z" fill="#6B1414"/>
<path d="M307.585 90.8808C307.585 89.2386 306.253 87.9073 304.61 87.9073C302.966 87.9073 301.634 89.2386 301.634 90.8808V114.674C301.634 116.316 302.966 117.648 304.61 117.648C306.253 117.648 307.585 116.316 307.585 114.674V90.8808Z" fill="#A40606"/>
<path d="M214.284 97.2519H218.109V75.5839H214.284V97.2519Z" fill="#A40606"/>
<path d="M223.212 116.794C219.716 116.794 216.363 115.407 213.891 112.937C211.419 110.466 210.03 107.116 210.03 103.623V102.775C210.03 101.045 210.371 99.3324 211.034 97.7344C211.696 96.1364 212.667 94.6844 213.891 93.4613C215.115 92.2382 216.568 91.268 218.167 90.6061C219.767 89.9441 221.481 89.6034 223.212 89.6034V116.794Z" fill="#6B1414"/>
<path d="M219.812 115.093C219.812 116.735 221.144 118.067 222.787 118.067C224.431 118.067 225.763 116.735 225.763 115.093V91.2996C225.763 89.6574 224.431 88.3261 222.787 88.3261C221.144 88.3261 219.812 89.6574 219.812 91.2996V115.093Z" fill="#A40606"/>
<path d="M308.837 52C303.656 41.2367 292.371 28.2223 268.047 27.1805V27.1491H267.753L259.135 27.5574V27.5993C234.973 28.7091 223.741 41.6764 218.575 52.4031C215.135 59.6748 213.308 67.6038 213.221 75.6468L216.197 75.5735L219.172 75.5054C219.301 68.3448 220.949 61.2931 224.008 54.8164C230.567 41.3518 242.638 34.1955 259.879 33.5306L267.502 33.1066C284.754 33.7662 296.83 40.933 303.384 54.3924C306.448 60.8714 308.1 67.927 308.23 75.0919L311.205 75.1599L314.181 75.2332C314.096 67.1946 312.273 59.2693 308.837 52Z" fill="#6B1414"/>
<path d="M444.783 303.111H38.915V412H444.783V303.111Z" fill="#D6D6E3"/>
<path opacity="0.1" d="M444.783 310.44H38.915V324.574H444.783V310.44Z" fill="black"/>
<path d="M472 301.54H11.6881V315.675H472V301.54Z" fill="#D6D6E3"/>
</g>
<defs>
<linearGradient id="paint0_linear" x1="241.847" y1="308.607" x2="241.847" y2="24.6048" gradientUnits="userSpaceOnUse">
<stop stop-color="#808080" stop-opacity="0.25"/>
<stop offset="0.54" stop-color="#808080" stop-opacity="0.12"/>
<stop offset="1" stop-color="#808080" stop-opacity="0.1"/>
</linearGradient>
<clipPath id="clip0">
<rect width="472" height="412" fill="white"/>
</clipPath>
</defs>
</svg>
