<svg width="173" height="158" viewBox="0 0 173 158" fill="none" xmlns="http://www.w3.org/2000/svg">
<g opacity="0.95" clip-path="url(#clip0)">
<path d="M25.0228 55.4104C25.0228 55.4104 39.049 70.1243 31.1316 91.9492C23.2143 113.774 44.7023 150.098 44.7023 150.098C44.7023 150.098 44.4727 150.062 44.0459 149.984C15.2395 144.649 0.926275 110.088 16.9524 84.4206C22.9004 74.8663 27.7882 63.6698 25.0228 55.4104Z" fill="#179890"/>
<path d="M25.0228 55.4104C25.0228 55.4104 32.9402 73.4469 25.0228 88.1588C17.1055 102.871 23.6659 144.171 44.7042 150.098" stroke="#535461" stroke-width="2" stroke-miterlimit="10"/>
<path d="M0.0401993 114.92C0.0401993 114.92 16.0452 112.246 17.5035 127.293C18.9618 142.341 48.2811 144.426 48.2811 144.426C48.2811 144.426 48.0897 144.563 47.7319 144.81C23.5243 161.473 0.384681 155.428 3.87352 133.294C5.16916 125.065 5.06199 116.8 0.0401993 114.92Z" fill="#6C63FF"/>
<path opacity="0.8" d="M0.0401993 114.92C0.0401993 114.92 16.0452 112.246 17.5035 127.293C18.9618 142.341 48.2811 144.426 48.2811 144.426C48.2811 144.426 48.0897 144.563 47.7319 144.81C23.5243 161.473 0.384681 155.428 3.87352 133.294C5.16916 125.065 5.06199 116.8 0.0401993 114.92Z" fill="#179890"/>
<path d="M0.0401993 114.92C0.0401993 114.92 12.4626 117.781 11.4426 129.63C10.4225 141.479 29.8915 155.691 48.2811 144.426" stroke="#535461" stroke-width="2" stroke-miterlimit="10"/>
<path d="M137.917 78.5202C137.273 74.7583 136.878 70.9541 136.735 67.1349C136.607 63.9896 135.556 60.9626 133.724 58.4689C131.892 55.9752 129.37 54.1369 126.503 53.206C125.459 52.8688 124.308 52.5536 123.038 52.2705C111.899 49.7891 108.516 51.9553 108.131 52.2404C107.805 51.6191 107.522 50.9744 107.283 50.3111C107.264 50.2428 107.247 50.1745 107.228 50.1103C109.432 47.6442 110.775 44.4675 111.038 41.0981C112.896 39.1226 113.982 36.7375 113.982 34.1698C113.982 31.9614 113.178 29.8895 111.771 28.0967V24.6074C111.771 20.5837 110.247 16.7247 107.535 13.8795C104.823 11.0343 101.144 9.43583 97.3086 9.43583H96.1354C94.2362 9.43583 92.3555 9.82826 90.6009 10.5907C88.8462 11.3531 87.2519 12.4707 85.9089 13.8795C84.5659 15.2883 83.5006 16.9608 82.7738 18.8015C82.047 20.6422 81.6729 22.6151 81.6729 24.6074V28.3677C80.3964 30.0963 79.673 32.0698 79.673 34.1657C79.673 36.6793 80.7141 39.0162 82.5016 40.9676C82.7458 44.4605 84.1505 47.7528 86.4708 50.2709C86.5493 50.8411 86.6296 51.4534 86.7081 52.0998L66.7855 56.5146C66.7855 56.5146 59.1036 56.8459 54.1545 67.5565C49.9691 76.629 41.6402 99.9375 39.1734 106.876C38.7275 108.133 38.4748 108.853 38.4748 108.853C38.4748 108.853 38.5571 108.767 38.7121 108.618L38.4748 109.295C38.4748 109.295 38.5954 109.167 38.8251 108.956C38.4768 111.859 38.427 116.844 42.0517 117.464C45.0908 117.984 52.922 118.199 58.8376 118.285H59.2471C63.1685 118.339 66.1521 118.339 66.1521 118.339V118.285H129.774V117.601C129.775 116.98 129.656 116.365 129.424 115.794L129.512 115.681C129.852 116.153 130.079 116.704 130.172 117.287C130.165 117.344 130.155 117.4 130.142 117.456L130.18 117.354C130.195 117.536 130.182 117.72 130.142 117.898C130.142 117.898 138.304 95.8359 138.216 82.6619C138.239 81.2746 138.139 79.888 137.917 78.5202ZM87.0392 55.0812C86.9338 54.4518 86.866 53.8162 86.8363 53.1779C86.8363 53.1779 86.8363 53.1659 86.8363 53.1599C86.9071 53.7802 86.976 54.4227 87.0392 55.0812ZM62.3092 102.469V107.727L59.1706 108.432L62.3092 102.469Z" fill="url(#paint0_linear)"/>
<path d="M96.3995 11.5579C100.235 11.5579 103.914 13.1563 106.626 16.0016C109.338 18.8468 110.862 22.7057 110.862 26.7295V33.2021H81.937V26.7295C81.937 22.7057 83.4608 18.8468 86.173 16.0016C88.8852 13.1563 92.5638 11.5579 96.3995 11.5579Z" fill="#007972"/>
<path d="M96.501 47.2073C105.606 47.2073 112.986 41.887 112.986 35.3241C112.986 28.7613 105.606 23.441 96.501 23.441C87.3963 23.441 80.0156 28.7613 80.0156 35.3241C80.0156 41.887 87.3963 47.2073 96.501 47.2073Z" fill="#00524D"/>
<path d="M85.933 46.8359C85.933 46.8359 89.3778 65.7216 85.933 70.8149C82.4882 75.9083 96.4589 77.9239 96.4589 77.9239L110.919 72.407L112.942 58.8254C112.942 58.8254 104.139 53.6256 105.963 43.1218L85.933 46.8359Z" fill="#F7C4A7"/>
<path d="M128.614 110.498C128.614 110.498 129.525 114.635 124.569 115.378C121.642 115.83 118.665 115.793 115.75 115.268L114.657 104.874H126.188L128.614 110.498Z" fill="#F7C4A7"/>
<path d="M41.0891 105.202C41.0891 105.202 38.8997 114.535 43.8564 115.378C48.8131 116.221 67.0133 116.227 67.0133 116.227V105.185L58.7725 107.032L51.037 99.2509L41.0891 105.202Z" fill="#F7C4A7"/>
<path opacity="0.1" d="M86.9971 52.937L67.6276 57.2333C67.6276 57.2333 60.2442 57.5526 55.4904 67.8436C50.7365 78.1347 40.4193 107.526 40.4193 107.526C40.4193 107.526 49.2227 98.1889 59.5361 108.163L66.4143 95.1132L64.8967 115.804H118.192V106.041C118.192 106.041 129.317 112.3 128.509 115.802C128.509 115.802 138.03 90.068 135.973 78.3736C135.354 74.7584 134.974 71.1024 134.836 67.4321C134.715 64.4092 133.704 61.4998 131.944 59.1033C130.183 56.7068 127.759 54.9406 125.003 54.0472C124 53.724 122.898 53.4209 121.673 53.1498C110.244 50.6042 107.32 53.1498 107.32 53.1498C107.32 53.1498 105.105 60.7065 105.146 64.1315C105.195 68.5343 99.1784 71.4533 99.1784 71.4533C99.1784 71.4533 90.2774 69.2249 89.8736 67.422C89.4697 65.6192 86.2852 55.0591 86.9971 52.937Z" fill="black"/>
<path d="M86.9971 52.5134L67.6276 56.8097C67.6276 56.8097 60.2442 57.1289 55.4904 67.42C50.7365 77.7111 40.4174 107.107 40.4174 107.107C40.4174 107.107 49.2208 97.7693 59.5342 107.743L66.4124 94.6936L64.8947 115.378H118.192V105.617C118.192 105.617 129.317 111.877 128.509 115.378C128.509 115.378 138.03 89.6444 135.973 77.95C135.354 74.3347 134.974 70.6788 134.836 67.0085C134.715 63.9856 133.704 61.0762 131.944 58.6797C130.183 56.2832 127.759 54.517 125.003 53.6236C124 53.3004 122.898 52.9973 121.673 52.7262C110.244 50.1806 107.32 52.7262 107.32 52.7262C107.32 52.7262 105.105 60.2829 105.146 63.7079C105.195 68.1106 99.1784 71.0297 99.1784 71.0297C99.1784 71.0297 90.2774 68.8013 89.8735 66.9984C89.4697 65.1956 86.2852 54.6355 86.9971 52.5134Z" fill="#066660"/>
<path opacity="0.1" d="M106.79 51.612C105.976 49.1955 105.794 46.5947 106.261 44.0794L86.2316 47.7915C86.2316 47.7915 86.5206 49.3795 86.8478 51.7585C88.142 53.1673 89.6958 54.2852 91.4147 55.0443C93.1336 55.8033 94.9818 56.1877 96.8467 56.174C98.7117 56.1603 100.555 55.7488 102.263 54.9645C103.972 54.1803 105.51 53.0396 106.786 51.612H106.79Z" fill="black"/>
<path d="M110.206 40.7889C110.19 44.575 108.756 48.203 106.214 50.8906C103.672 53.5782 100.225 55.11 96.616 55.1558C93.007 55.2017 89.5255 53.7578 86.922 51.1356C84.3186 48.5134 82.8018 44.9228 82.6987 41.1382C82.6987 41.0218 82.6987 40.9053 82.6987 40.7889C82.6981 38.087 83.4204 35.4392 84.7836 33.1468C86.1467 30.8543 88.0959 29.0093 90.4094 27.8217C90.8215 27.6102 91.2451 27.4201 91.6801 27.2515C93.943 26.3789 96.3837 26.1408 98.7612 26.5609C101.808 27.1051 104.591 28.7108 106.661 31.1187C108.731 33.5265 109.967 36.5959 110.169 39.8313C110.194 40.1485 110.206 40.4677 110.206 40.7889Z" fill="#F7C4A7"/>
<g opacity="0.1">
<path opacity="0.1" d="M91.6591 27.5908L91.6783 27.5787C91.2432 27.7474 90.8196 27.9374 90.4075 28.1489C88.094 29.3365 86.1449 31.1815 84.7817 33.474C83.4185 35.7664 82.6962 38.4142 82.6968 41.1161C82.6968 41.2326 82.6968 41.349 82.6968 41.4655C83.1245 41.4533 83.545 41.3473 83.9312 41.1543C87.2842 39.512 89.2898 34.489 90.086 30.9857C90.373 29.7309 90.6429 28.3175 91.6591 27.5908Z" fill="black"/>
<path opacity="0.1" d="M102.187 27.9943C101.098 27.4696 99.9483 27.0977 98.7669 26.8881C99.7358 27.122 100.601 27.6921 101.222 28.5063C101.527 28.9407 101.779 29.4127 101.974 29.9116C100.144 29.0719 98.1612 28.6595 96.1637 28.7028C94.1662 28.7462 92.2015 29.2442 90.4056 30.1625C91.2687 32.1481 93.9461 33.2302 95.7336 33.9549C97.6907 34.7473 99.6683 35.472 101.666 36.1292L99.898 34.6235L103.892 35.29C103.935 34.4562 103.841 33.6208 103.613 32.8206C104.378 33.4671 105.392 33.6839 106.223 34.226C107.779 35.2559 108.428 37.2374 109.276 38.9539C109.499 39.4077 109.764 39.8714 110.167 40.1585C110.004 37.5651 109.177 35.066 107.772 32.925C106.367 30.784 104.438 29.0805 102.187 27.9943Z" fill="black"/>
</g>
<path d="M91.6591 27.2635L91.6783 27.2515C91.2432 27.4201 90.8196 27.6102 90.4075 27.8216C88.094 29.0093 86.1449 30.8543 84.7817 33.1468C83.4185 35.4392 82.6962 38.087 82.6968 40.7889C82.6968 40.9053 82.6968 41.0218 82.6968 41.1382C83.1245 41.1261 83.545 41.0201 83.9312 40.827C87.2842 39.1848 89.2898 34.1617 90.086 30.6584C90.373 29.4117 90.6429 27.9923 91.6591 27.2635Z" fill="#2C2A34"/>
<path d="M102.187 27.6691C101.098 27.1444 99.9482 26.7725 98.7669 26.5629C99.7357 26.7967 100.601 27.3669 101.222 28.181C101.527 28.6155 101.779 29.0874 101.974 29.5864C100.144 28.7467 98.1612 28.3343 96.1637 28.3776C94.1662 28.4209 92.2015 28.919 90.4056 29.8373C91.2687 31.8228 93.9461 32.905 95.7336 33.6297C97.6907 34.4221 99.6683 35.1468 101.666 35.804L99.8979 34.2982L103.892 34.9648C103.935 34.1309 103.84 33.2955 103.613 32.4954C104.378 33.1419 105.392 33.3587 106.223 33.9007C107.779 34.9307 108.428 36.9122 109.276 38.6287C109.499 39.0824 109.764 39.5462 110.167 39.8333C110.004 37.2399 109.176 34.7408 107.772 32.5998C106.367 30.4588 104.438 28.7553 102.187 27.6691Z" fill="#2C2A34"/>
<path opacity="0.1" d="M81.1275 38.4099C81.1275 38.4099 95.2895 19.9397 111.674 38.4099L110.257 34.2721C110.257 34.2721 102.57 22.4954 97.1096 25.0371C91.6495 27.5787 86.2871 29.3876 86.2871 29.3876L81.1275 38.4099Z" fill="black"/>
<path d="M81.1275 38.0826C81.1275 38.0826 95.2895 19.6125 111.674 38.0826L110.257 33.9449C110.257 33.9449 102.57 22.1682 97.1096 24.7098C91.6495 27.2515 86.2871 29.0603 86.2871 29.0603L81.1275 38.0826Z" fill="#00524D"/>
<path opacity="0.1" d="M69.4955 77.8717C69.4955 77.8717 66.4621 86.36 70.7088 93.999C74.9555 101.638 66.9674 104.822 66.9674 104.822" fill="black"/>
<path opacity="0.1" d="M118.651 70.2327C118.651 70.2327 123.91 77.2353 120.471 83.4951C117.032 89.7549 117.235 104.822 117.235 104.822" fill="black"/>
<path d="M64.8431 111.082H123.304C124.591 111.082 125.826 111.618 126.737 112.574C127.647 113.529 128.159 114.824 128.159 116.175H59.9897C59.9897 114.825 60.501 113.529 61.4111 112.574C62.3212 111.619 63.5557 111.082 64.8431 111.082Z" fill="#535461"/>
<path d="M70.7911 76.0669H117.357C118.338 76.0669 119.308 76.2694 120.214 76.6629C121.119 77.0564 121.942 77.6331 122.635 78.3602C123.328 79.0872 123.878 79.9503 124.253 80.9003C124.628 81.8502 124.821 82.8684 124.821 83.8966V112.248H63.3273V83.8966C63.3273 81.82 64.1137 79.8285 65.5134 78.3602C66.9131 76.8918 68.8116 76.0669 70.7911 76.0669Z" fill="#241F36"/>
<path d="M94.0226 99.5701C96.034 99.5701 97.6646 97.8596 97.6646 95.7496C97.6646 93.6396 96.034 91.9291 94.0226 91.9291C92.0112 91.9291 90.3807 93.6396 90.3807 95.7496C90.3807 97.8596 92.0112 99.5701 94.0226 99.5701Z" fill="white"/>
<path opacity="0.1" d="M81.937 29.753C81.937 29.753 95.8541 15.1616 110.864 29.486" stroke="black" stroke-miterlimit="10"/>
<path d="M114.38 28.8235H112.983V37.133H114.38V28.8235Z" fill="#A40606"/>
<path d="M111.119 34.1999C112.396 34.1999 113.62 34.732 114.523 35.6793C115.426 36.6266 115.934 37.9114 115.934 39.2511V39.5763C115.934 40.9159 115.426 42.2007 114.523 43.148C113.62 44.0953 112.396 44.6275 111.119 44.6275V34.1999Z" fill="#6B1414"/>
<path d="M112.361 34.8524C112.361 34.2226 111.874 33.712 111.274 33.712C110.673 33.712 110.186 34.2226 110.186 34.8524V43.977C110.186 44.6068 110.673 45.1173 111.274 45.1173C111.874 45.1173 112.361 44.6068 112.361 43.977V34.8524Z" fill="#A40606"/>
<path d="M78.2779 37.2956H79.6749V28.9861H78.2779V37.2956Z" fill="#A40606"/>
<path d="M81.5389 44.7901C80.2619 44.7901 79.0372 44.2579 78.1342 43.3106C77.2312 42.3634 76.7239 41.0786 76.7239 39.7389V39.4137C76.7239 38.7503 76.8484 38.0935 77.0904 37.4807C77.3324 36.8678 77.687 36.311 78.1342 35.8419C78.5813 35.3729 79.1121 35.0008 79.6963 34.747C80.2805 34.4931 80.9066 34.3625 81.5389 34.3625V44.7901Z" fill="#6B1414"/>
<path d="M80.2969 44.1376C80.2969 44.7674 80.7836 45.278 81.3839 45.278C81.9843 45.278 82.471 44.7674 82.471 44.1376V35.013C82.471 34.3832 81.9843 33.8726 81.3839 33.8726C80.7836 33.8726 80.2969 34.3832 80.2969 35.013V44.1376Z" fill="#A40606"/>
<path d="M112.818 19.9417C110.925 15.8141 106.803 10.8231 97.9172 10.4236V10.4115H97.81L94.6618 10.5681V10.5842C85.8354 11.0098 81.7322 15.9827 79.8453 20.0963C78.5885 22.885 77.9213 25.9257 77.8894 29.0102L78.9764 28.9821L80.0634 28.956C80.1103 26.2099 80.7124 23.5056 81.8299 21.0218C84.2259 15.8582 88.6353 13.1138 94.9336 12.8588L97.7181 12.6962C104.02 12.9492 108.432 15.6976 110.826 20.8592C111.945 23.3439 112.548 26.0497 112.596 28.7974L113.683 28.8235L114.77 28.8516C114.739 25.7688 114.073 22.7295 112.818 19.9417Z" fill="#6B1414"/>
<path d="M162.479 116.241H14.2156V158H162.479V116.241Z" fill="#D6D6E3"/>
<path opacity="0.1" d="M162.479 119.052H14.2156V124.473H162.479V119.052Z" fill="black"/>
<path d="M172.421 115.639H4.26965V121.06H172.421V115.639Z" fill="#D6D6E3"/>
</g>
<defs>
<linearGradient id="paint0_linear" x1="88.3463" y1="118.349" x2="88.3463" y2="9.43583" gradientUnits="userSpaceOnUse">
<stop stop-color="#808080" stop-opacity="0.25"/>
<stop offset="0.54" stop-color="#808080" stop-opacity="0.12"/>
<stop offset="1" stop-color="#808080" stop-opacity="0.1"/>
</linearGradient>
<clipPath id="clip0">
<rect width="172.421" height="158" fill="white"/>
</clipPath>
</defs>
</svg>
