<svg width="53" height="35" viewBox="0 0 53 35" fill="none" xmlns="http://www.w3.org/2000/svg">
<path d="M26.0644 18.6425L9.80929 1.32358C8.98892 0.449518 7.96932 0 6.78564 0C5.57852 0 4.57064 0.437032 3.75027 1.32358L1.24228 3.99572C0.421905 4.86978 0 5.95612 0 7.21727C0 8.47842 0.410185 9.56475 1.24228 10.4388L23.029 33.6764C23.8493 34.5505 24.869 35 26.0526 35C27.2363 35 28.2559 34.563 29.0763 33.6764L50.863 10.4388C51.6834 9.56475 52.1053 8.47842 52.1053 7.21727C52.1053 5.95612 51.6951 4.86978 50.863 3.99572L48.355 1.32358C47.5346 0.449518 46.5267 0 45.3431 0C44.1594 0 43.1515 0.437032 42.296 1.32358L26.0644 18.6425Z" fill="#FF9191" fill-opacity="0.7"/>
</svg>
