<svg id="Layer_1" data-name="Layer 1" xmlns="http://www.w3.org/2000/svg" viewBox="0 0 502.19 501.82"><defs><style>.cls-1{stroke:#000;stroke-miterlimit:10;stroke-width:2px;}</style></defs><path class="cls-1" d="M501.17,315.21c-.19-1.16-1.12-1.62-2.78-1.39l-7.06,3.48q-12,1.67-37.36-15.67c-16.9-11.55-79.3-65.21-100.34-82.93s-34.73-28.71-41-33A367.46,367.46,0,0,0,397.28,144,252.27,252.27,0,0,0,433,115.16a110.28,110.28,0,0,0,23.29-32.52q8.13-17.58,5.52-32.75t-18-28a84.87,84.87,0,0,0-22.3-13.07q-13.09-5.37-35-7.24T331.8,4.23q-32.83,4.54-72.39,20c-26.37,10.32-47.31,24-64.93,33.93-16.06,9.07-81.78,59.69-92.37,68.27a34.85,34.85,0,0,0-3.43,3.26Q18.6,193.28,9.29,250.33a44.51,44.51,0,0,0-.47,14.86q2.44,14.26,14.67,24a65.24,65.24,0,0,0,27.86,13,86.87,86.87,0,0,0,29.79,1.29,89.66,89.66,0,0,0,28.65-9.39q14.5-7.42,21.39-19.32t4.34-26.76c-.33-1.9-.87-2.8-1.62-2.69s-3.42,2.17-8,6.21a125.76,125.76,0,0,1-17.66,12.66,56.58,56.58,0,0,1-21.8,8.12,37.13,37.13,0,0,1-21.6-3.57q-10.61-5.1-12.32-15.07Q49.15,234,80,197.29t77.34-68.24q3.3-2.24,6.62-4.39l13.68-8.55a380.55,380.55,0,0,1,76-35.11q22.86-7.34,29.66-8.28c3.88-.54,6.11-.64,6.74-.32q-4.71,8.22-11.34,20.19-62,106-121,217.42Q126.59,328.51,94,350.73A407.36,407.36,0,0,0,57.79,379a415.88,415.88,0,0,0-30.4,29.64Q13.11,424.05,6.18,439.81T1.58,469.1a45.56,45.56,0,0,0,11.33,23.44q9,9.9,23.05,8,29-4,48.9-18.44t41.25-43.44q21.33-29,50.9-85.22l9.21-17.95,28.84-53.6q22-40.05,38.4-69.75l14.47-13.73q7.33,6.28,27.09,24.07t35,30.8c10.15,8.67,64.88,56.86,77.36,66.52S431,336.7,441,341.57s18.45,6.83,25.47,5.85,12.33-3.16,15.92-6.58a110,110,0,0,0,12.24-14.51Q501.48,316.94,501.17,315.21ZM102.32,408.77a300.58,300.58,0,0,1-19.95,26.32,144.56,144.56,0,0,1-21,20q-11.46,8.88-19.28,10t-8.58-3.4q-3.6-21,97.2-98.5Q117.32,386.68,102.32,408.77ZM287.47,158.14q6-11,19.53-35.53T328.81,82.8q4.68-8.64,7.25-13.78,1.59-2.83,3.16-5.71,5.64-10.37,6.16-12.74T345,42.71a11.89,11.89,0,0,0-4.57-7.11c1.23-.2,2.46-.39,3.66-.56q26.71-3.69,49-.95a57.41,57.41,0,0,1,19,5.39q7.88,4,8.93,10.13,2,11.4-11.61,29a197.64,197.64,0,0,1-34.07,33.9,292.61,292.61,0,0,1-45,29.26Q305.9,154.76,287.47,158.14Z"/></svg>