<svg id="Layer_1" data-name="Layer 1" xmlns="http://www.w3.org/2000/svg" viewBox="0 0 1000 1000"><defs><style>.cls-1{stroke:#000;stroke-miterlimit:10;stroke-width:2px;}</style></defs><path class="cls-1" d="M750.08,564.38q-.3-1.73-2.79-1.38l-7,3.48q-12,1.66-37.36-15.67c-16.9-11.55-79.3-65.21-100.35-82.93s-34.72-28.71-41-33a367.53,367.53,0,0,0,84.68-41.75A252.73,252.73,0,0,0,682,364.33a110.29,110.29,0,0,0,23.29-32.51q8.12-17.58,5.52-32.76t-18-28A84.76,84.76,0,0,0,670.43,258q-13.09-5.37-35-7.24t-54.73,2.68q-32.85,4.56-72.4,20c-26.37,10.32-47.31,24-64.92,33.92-16.07,9.08-81.78,59.7-92.37,68.28a34.88,34.88,0,0,0-3.44,3.26q-80.07,63.56-89.39,120.61a44.47,44.47,0,0,0-.46,14.86q2.44,14.25,14.67,24a65.19,65.19,0,0,0,27.86,13,86.87,86.87,0,0,0,29.79,1.29,90,90,0,0,0,28.65-9.39q14.49-7.43,21.39-19.32t4.33-26.76q-.48-2.85-1.62-2.7t-8,6.22a126.44,126.44,0,0,1-17.65,12.65,56.51,56.51,0,0,1-21.8,8.13,37.19,37.19,0,0,1-21.6-3.57q-10.62-5.1-12.32-15.07-3.39-19.75,27.42-56.43t77.35-68.24q3.3-2.24,6.61-4.39l13.69-8.55a380,380,0,0,1,76.05-35.11q22.86-7.33,29.66-8.28c3.87-.54,6.11-.64,6.74-.32q-4.71,8.22-11.34,20.19-62,106-121,217.42-31.14,18.49-63.74,40.72a409.41,409.41,0,0,0-36.21,28.25A421.93,421.93,0,0,0,276.3,657.8Q262,673.24,255.09,689t-4.6,29.3a45.52,45.52,0,0,0,11.33,23.44q9,9.9,23,8,29-4,48.9-18.45T375,687.79q21.35-29,50.9-85.21l9.22-18L464,531q22-40,38.4-69.75l14.47-13.73q7.33,6.27,27.08,24.07t35,30.8c10.14,8.67,64.87,56.86,77.36,66.52s23.69,16.94,33.65,21.81,18.45,6.82,25.47,5.85,12.33-3.17,15.92-6.58a109.89,109.89,0,0,0,12.23-14.51Q750.38,566.11,750.08,564.38ZM351.23,658a302.53,302.53,0,0,1-20,26.32,144.49,144.49,0,0,1-21,20q-11.48,8.88-19.28,10t-8.58-3.4q-3.6-21,97.2-98.5Q366.23,635.86,351.23,658ZM536.38,407.32q6-11,19.53-35.53T577.72,332q4.66-8.66,7.24-13.78c1.07-1.89,2.12-3.79,3.17-5.71q5.64-10.37,6.16-12.74t-.42-7.86a11.83,11.83,0,0,0-4.58-7.11c1.24-.2,2.46-.39,3.66-.56q26.73-3.71,49-1a57.47,57.47,0,0,1,19,5.39q7.88,4,8.92,10.12,2,11.42-11.6,29a197.72,197.72,0,0,1-34.08,33.9,292.77,292.77,0,0,1-45,29.26Q554.81,403.94,536.38,407.32Z"/></svg>