<svg width="65" height="65" viewBox="0 0 65 65" fill="none" xmlns="http://www.w3.org/2000/svg">
<path d="M64.7135 40.7913C64.7135 40.6422 64.5645 40.5734 64.3468 40.6078L63.4415 41.055C62.4025 41.2079 60.7981 40.5199 58.6284 38.9908C56.451 37.5 48.4177 30.5848 45.7017 28.3027C42.9857 26.0206 41.2553 24.6445 40.4187 24.0826C44.271 22.7659 47.9377 20.9582 51.3285 18.7041C52.9658 17.6071 54.5001 16.3634 55.9124 14.9885C57.1573 13.7858 58.1745 12.3678 58.9149 10.8027C59.5766 9.49743 59.8244 8.02112 59.6254 6.57109C59.3165 5.13191 58.5036 3.85067 57.3334 2.9587C56.464 2.25629 55.4945 1.68807 54.457 1.27292C53.005 0.747223 51.4837 0.438105 49.9418 0.355489C47.5871 0.215493 45.224 0.330843 42.8941 0.699526C39.6949 1.19349 36.5643 2.05944 33.5658 3.2798C30.6729 4.52346 27.8799 5.98803 25.2116 7.66053C23.1374 8.80732 14.6686 15.3555 13.3048 16.4564C13.1483 16.5857 13.0027 16.7276 12.8694 16.8807C5.9935 22.3394 2.17356 27.5191 1.40957 32.4197C1.28435 33.0505 1.26498 33.6977 1.35228 34.3348C1.56417 35.5708 2.24074 36.6787 3.24314 37.4312C4.28661 38.2725 5.51676 38.8506 6.83006 39.117C8.09102 39.3908 9.3897 39.4451 10.6691 39.2775C11.9546 39.1046 13.202 38.717 14.3592 38.1307C15.4894 37.5524 16.4257 36.6553 17.0522 35.5504C17.6457 34.5082 17.845 33.2871 17.6137 32.1101C17.6137 31.8693 17.4991 31.7431 17.4075 31.766C17.0268 31.9778 16.6793 32.2444 16.3761 32.5573C15.6623 33.171 14.8953 33.7198 14.0841 34.1972C13.2301 34.7349 12.2742 35.0902 11.2765 35.2408C10.3233 35.3684 9.35375 35.2087 8.49173 34.7821C8.08169 34.6237 7.71843 34.3639 7.43587 34.027C7.15331 33.6901 6.96066 33.2871 6.8759 32.8555C6.59323 31.1582 7.77359 28.7347 10.417 25.5848C13.3132 22.2053 16.6648 19.245 20.3755 16.789L21.2236 16.227L22.9884 15.0803C26.0778 13.2139 29.3638 11.6947 32.7865 10.5504C34.0574 10.1244 35.3552 9.78343 36.6714 9.5298C36.9598 9.48331 37.2539 9.48331 37.5423 9.5298L36.0755 12.133C30.7428 21.2156 25.5439 30.5504 20.4787 40.1376C17.7971 41.7316 15.0582 43.4748 12.262 45.3899C10.6428 46.5165 9.08586 47.7301 7.59787 49.0252C6.23105 50.2347 4.92676 51.5131 3.69008 52.8555C2.56007 54.0314 1.63436 55.388 0.951182 56.8693C0.382107 58.0396 0.178447 59.3543 0.366733 60.6422C0.543273 61.766 1.04989 62.8119 1.82213 63.6468C2.18605 64.0597 2.65097 64.3709 3.17131 64.5498C3.69164 64.7288 4.24952 64.7693 4.79022 64.6674C7.05453 64.4079 9.21966 63.5924 11.0931 62.2936C13.1329 60.7058 14.9217 58.8191 16.399 56.6972C18.8287 53.1936 21.0077 49.5224 22.9196 45.711L24.0656 43.4174L27.7786 36.5367C29.6733 33.0963 31.3235 30.0994 32.7292 27.5459L34.5857 25.7683C35.216 26.3073 36.3849 27.3509 38.0236 28.8761C39.6624 30.4014 41.2209 31.7316 42.5273 32.844C43.8338 33.9564 50.8815 40.172 52.4859 41.422C53.8345 42.4981 55.2854 43.4392 56.8177 44.2316C57.8163 44.8008 58.9599 45.064 60.1067 44.9885C60.8615 44.9238 61.5779 44.6274 62.158 44.1399C62.7315 43.5608 63.2566 42.9356 63.728 42.2706C64.45 41.4105 64.7364 40.9403 64.7135 40.7913ZM13.3392 52.844C12.543 54.0046 11.6862 55.1224 10.7722 56.1926C9.94427 57.1567 9.02299 58.0364 8.02188 58.8188C7.31178 59.446 6.45737 59.8873 5.5351 60.1032C4.87043 60.1949 4.50372 60.1032 4.38912 59.6674C4.13701 57.8708 8.33512 53.6544 16.9834 47.0183C15.8375 49.0061 14.6227 50.948 13.3392 52.844ZM37.1871 20.539C37.7028 19.5986 38.5393 18.0619 39.6968 15.9518C40.8542 13.8417 41.7939 12.133 42.5044 10.8142C42.9055 10.0803 43.2264 9.48393 43.4441 9.04815C43.5816 8.79586 43.7192 8.55503 43.8452 8.30274C44.1797 7.78854 44.4637 7.24319 44.6932 6.6743C44.7319 6.3371 44.7125 5.99577 44.636 5.66512C44.5615 5.2974 44.3532 4.97045 44.0515 4.74769L44.5214 4.67888C46.5941 4.37487 48.6977 4.34402 50.7784 4.58714C51.6317 4.66865 52.4628 4.90573 53.2308 5.28668C53.512 5.39427 53.7631 5.56829 53.9627 5.79393C54.1622 6.01956 54.3043 6.29012 54.3768 6.58255C54.5487 7.56879 54.0559 8.80732 52.887 10.3211C51.6066 11.9503 50.1327 13.4176 48.4979 14.6904C46.7089 16.123 44.7907 17.386 42.768 18.4633C41.025 19.4372 39.1427 20.1373 37.1871 20.539Z" fill="black" stroke="black" stroke-width="0.5" stroke-miterlimit="10"/>
</svg>
