<svg width="20" height="20" viewBox="0 0 20 20" fill="none" xmlns="http://www.w3.org/2000/svg">
<path d="M1.42857 4L18.5714 4C19.36 4 20 3.104 20 2C20 0.896002 19.36 1.69251e-06 18.5714 1.62357e-06L1.42857 1.2489e-07C0.64 5.59506e-08 -7.83308e-08 0.896 -1.74846e-07 2C-2.7136e-07 3.104 0.64 4 1.42857 4ZM18.5714 8L1.42857 8C0.64 8 -5.39295e-07 8.896 -6.35809e-07 10C-7.32324e-07 11.104 0.639999 12 1.42857 12L18.5714 12C19.36 12 20 11.104 20 10C20 8.896 19.36 8 18.5714 8ZM18.5714 16L1.42857 16C0.639999 16 -2.08108e-06 16.896 -2.17759e-06 18C-2.27411e-06 19.104 0.639999 20 1.42857 20L18.5714 20C19.36 20 20 19.104 20 18C20 16.896 19.36 16 18.5714 16Z" fill="black"/>
</svg>
